<?xml version="1.0" encoding="utf-8"?>
<!-- Generator: Adobe Illustrator 24.3.0, SVG Export Plug-In . SVG Version: 6.00 Build 0)  -->
<svg version="1.1" xmlns="http://www.w3.org/2000/svg" xmlns:xlink="http://www.w3.org/1999/xlink" x="0px" y="0px"
	 viewBox="0 0 312 51.2" style="enable-background:new 0 0 312 51.2;" xml:space="preserve">
<style type="text/css">
	.st0{fill:#17212C;}
	.st1{fill:#FF444F;}
	.st2{fill:#FFFFFF;}
	.st3{fill:#FF6444;}
	.st4{fill:none;}
	.st5{fill:#CC2E3D;}
	.st6{fill:#BCCDCE;}
	.st7{fill:#C7E5E5;}
	.st8{fill:#85ACB0;}
	.st9{fill:#E1F4F3;}
	.st10{fill:#E5E5E5;}
	.st11{fill:#0E0E0E;}
</style>
<g id="Layer_1">
	
		<image style="overflow:visible;" width="3360" height="2100" xlink:href="1F572F8A6FD3ED8A.png"  transform="matrix(0.5 0 0 0.5 -349.6931 1250.8137)">
	</image>
	<rect x="-2053.5" y="1418.2" class="st0" width="2" height="60"/>
	
		<image style="overflow:visible;" width="3360" height="2100" xlink:href="1F572F8A6FD3ED8E.png"  transform="matrix(0.5 0 0 0.5 -2326.0105 2478.5806)">
	</image>
	
		<image style="overflow:visible;" width="3360" height="2100" xlink:href="1F572F8A6FD3ED89.png"  transform="matrix(0.5 0 0 0.5 -4136.8916 2478.5806)">
	</image>
	
		<image style="overflow:visible;" width="3360" height="2100" xlink:href="1F572F8A6FD3ED8B.png"  transform="matrix(0.5 0 0 0.5 -4136.8916 1250.8137)">
	</image>
</g>
<g id="Layer_2">
</g>
<g id="Layer_3">
	<g>
		<defs>
			<rect id="SVGID_1_" x="-72.3" y="1424.1" width="418.2" height="53.7"/>
		</defs>
		<clipPath id="SVGID_2_">
			<use xlink:href="#SVGID_1_"  style="overflow:visible;"/>
		</clipPath>
	</g>
	<rect x="-3864.4" y="1418.2" class="st0" width="2" height="60"/>
	<g>
		<g>
			<path class="st1" d="M-3547.5,1431.6h116c2.2,0,4,1.8,4,4v24c0,2.2-1.8,4-4,4h-116c-2.2,0-4-1.8-4-4v-24
				C-3551.5,1433.4-3549.7,1431.6-3547.5,1431.6z"/>
			<g>
				<path class="st2" d="M-3513.5,1444.8v7.9h-2.1v-7.9h-2.6v-1.9h7.4v1.9H-3513.5z"/>
				<path class="st2" d="M-3509.5,1452.6v-7.3h2.1v1.6h0.1c0-0.2,0.1-0.4,0.2-0.6c0.1-0.2,0.2-0.4,0.4-0.5c0.2-0.1,0.3-0.3,0.6-0.4
					c0.2-0.1,0.5-0.1,0.8-0.1h0.4v1.9h-0.5c-0.6,0-1.1,0.1-1.4,0.2c-0.3,0.2-0.4,0.5-0.4,0.9v4.3H-3509.5z"/>
				<path class="st2" d="M-3499.3,1445.3h1.9l-2.8,8.5c-0.2,0.6-0.5,1-0.8,1.3c-0.3,0.3-0.8,0.4-1.5,0.4h-1.3v-1.6h1.4l0.3-0.8
					l-2.6-7.7h2.1l1.1,3.4l0.5,2.1h0.1l0.5-2.1L-3499.3,1445.3z"/>
				<path class="st2" d="M-3492.9,1442.9h3.7c0.6,0,1.2,0.1,1.8,0.3c0.5,0.2,1,0.5,1.4,0.9c0.4,0.4,0.7,0.9,0.9,1.5
					c0.2,0.6,0.3,1.3,0.3,2.1c0,0.8-0.1,1.5-0.3,2.1c-0.2,0.6-0.5,1.1-0.9,1.5c-0.4,0.4-0.8,0.7-1.4,0.9c-0.5,0.2-1.1,0.3-1.8,0.3
					h-3.7V1442.9z M-3489.3,1450.8c0.6,0,1.1-0.2,1.5-0.5c0.4-0.4,0.5-0.9,0.5-1.7v-1.5c0-0.8-0.2-1.4-0.5-1.7
					c-0.4-0.4-0.9-0.5-1.5-0.5h-1.6v6H-3489.3z"/>
				<path class="st2" d="M-3483.2,1442.9h4.7c0.8,0,1.4,0.2,1.9,0.7c0.5,0.5,0.7,1.1,0.7,1.8c0,0.4,0,0.7-0.1,1
					c-0.1,0.3-0.2,0.5-0.4,0.6c-0.2,0.2-0.4,0.3-0.6,0.4c-0.2,0.1-0.5,0.1-0.7,0.1v0.1c0.2,0,0.5,0,0.7,0.1s0.5,0.2,0.7,0.4
					c0.2,0.2,0.4,0.4,0.5,0.7c0.1,0.3,0.2,0.6,0.2,1.1c0,0.4-0.1,0.7-0.2,1.1s-0.3,0.6-0.5,0.9c-0.2,0.3-0.5,0.5-0.8,0.6
					s-0.6,0.2-1,0.2h-5.2V1442.9z M-3481.1,1446.9h2.1c0.3,0,0.5-0.1,0.7-0.2c0.2-0.2,0.2-0.4,0.2-0.7v-0.4c0-0.3-0.1-0.5-0.2-0.7
					c-0.2-0.2-0.4-0.2-0.7-0.2h-2.1V1446.9z M-3481.1,1450.8h2.4c0.3,0,0.5-0.1,0.7-0.2c0.2-0.2,0.2-0.4,0.2-0.7v-0.5
					c0-0.3-0.1-0.5-0.2-0.7c-0.2-0.2-0.4-0.2-0.7-0.2h-2.4V1450.8z"/>
				<path class="st2" d="M-3471,1452.8c-0.5,0-1-0.1-1.4-0.3c-0.4-0.2-0.8-0.4-1.1-0.8s-0.5-0.7-0.7-1.2c-0.2-0.5-0.2-1-0.2-1.6
					s0.1-1.1,0.2-1.6c0.2-0.5,0.4-0.9,0.7-1.2c0.3-0.3,0.7-0.6,1.1-0.8c0.4-0.2,0.9-0.3,1.4-0.3c0.5,0,1,0.1,1.4,0.3
					c0.4,0.2,0.8,0.4,1.1,0.8c0.3,0.3,0.5,0.7,0.7,1.2c0.2,0.5,0.2,1,0.2,1.6s-0.1,1.1-0.2,1.6s-0.4,0.9-0.7,1.2s-0.7,0.6-1.1,0.8
					C-3470,1452.7-3470.4,1452.8-3471,1452.8z M-3471,1451.2c0.4,0,0.7-0.1,1-0.4s0.3-0.6,0.3-1.1v-1.5c0-0.5-0.1-0.8-0.3-1.1
					s-0.5-0.4-1-0.4c-0.4,0-0.7,0.1-1,0.4s-0.3,0.6-0.3,1.1v1.5c0,0.5,0.1,0.8,0.3,1.1S-3471.4,1451.2-3471,1451.2z"/>
				<path class="st2" d="M-3463.5,1452.6c-0.7,0-1.3-0.2-1.6-0.5c-0.4-0.4-0.6-0.9-0.6-1.6v-3.6h-1v-1.6h0.5c0.3,0,0.5-0.1,0.6-0.2
					c0.1-0.1,0.2-0.3,0.2-0.6v-1.2h1.9v2h1.5v1.6h-1.5v4.1h1.3v1.6H-3463.5z"/>
			</g>
		</g>
		<g id="logo_x2F_platforms_x2F_DBot_3_" transform="translate(16.000000, 8.000000)">
			<g id="_x33_-icons_x2F_2-binarybot_3_">
				<g id="ic_platform-binarybot_3_">
					<path id="Rectangle_6_" class="st3" d="M-3841.5,1423.6h20c3.3,0,6,2.7,6,6v20c0,3.3-2.7,6-6,6h-20c-3.3,0-6-2.7-6-6v-20
						C-3847.5,1426.3-3844.8,1423.6-3841.5,1423.6z"/>
					<path id="Path_12_" class="st4" d="M-3833.7,1436.9c0.5,0,0.8-0.4,0.8-0.8s-0.4-0.8-0.8-0.8s-0.8,0.4-0.8,0.8
						c0,0.2,0.1,0.4,0.2,0.6S-3834,1436.9-3833.7,1436.9L-3833.7,1436.9z"/>
					<path id="Path_11_" class="st2" d="M-3822.2,1439.1v-4.6c0-2.7-2.2-4.8-4.8-4.8h-3.9v9.4H-3822.2z"/>
					<path id="Path_10_" class="st2" d="M-3830.9,1449.6h3.9c2.7,0,4.8-2.2,4.8-4.8v-4.6h-8.7V1449.6z"/>
					<path id="Path_9_" class="st2" d="M-3835.7,1437.5c-1.5,0-2.7-1.2-2.8-2.6s1-2.8,2.5-3s2.9,0.8,3.1,2.3h0.9v-4.5h-3.9
						c-2.7,0-4.8,2.2-4.8,4.8v10.3c0,2.7,2.2,4.8,4.8,4.8h3.9v-14.4h-0.9C-3833.1,1436.6-3834.3,1437.5-3835.7,1437.5z"/>
					<rect id="Rectangle_5_" x="-3847.5" y="1423.6" class="st4" width="32" height="32"/>
				</g>
			</g>
		</g>
		<g>
			<path class="st2" d="M-3786.4,1442.5v-9.8h6.3v1.4h-4.7v2.7h4.2v1.4h-4.2v2.9h4.7v1.4H-3786.4z"/>
			<path class="st2" d="M-3779.1,1442.5l2.6-3.7l-2.5-3.6h1.8l1.6,2.5h0l1.7-2.5h1.6l-2.5,3.6l2.5,3.7h-1.8l-1.7-2.6h0l-1.8,2.6
				H-3779.1z"/>
			<path class="st2" d="M-3770.8,1435.2h1.5v1.2h0.1c0.2-0.4,0.4-0.8,0.8-1s0.8-0.4,1.3-0.4c0.9,0,1.6,0.3,2.1,1
				c0.5,0.7,0.8,1.6,0.8,2.8s-0.3,2.1-0.8,2.8s-1.2,1-2.1,1c-0.5,0-0.9-0.1-1.3-0.4c-0.4-0.2-0.6-0.6-0.8-1h-0.1v4h-1.5V1435.2z
				 M-3767.7,1441.3c0.5,0,1-0.2,1.3-0.5s0.5-0.8,0.5-1.4v-1.3c0-0.6-0.2-1-0.5-1.4s-0.7-0.5-1.3-0.5c-0.5,0-0.9,0.1-1.2,0.3
				c-0.3,0.2-0.5,0.5-0.5,0.9v2.5c0,0.4,0.2,0.7,0.5,0.9C-3768.5,1441.2-3768.1,1441.3-3767.7,1441.3z"/>
			<path class="st2" d="M-3759.7,1442.7c-0.5,0-1-0.1-1.4-0.3c-0.4-0.2-0.8-0.4-1-0.8c-0.3-0.3-0.5-0.7-0.7-1.2
				c-0.2-0.5-0.2-1-0.2-1.6c0-0.6,0.1-1.1,0.2-1.6s0.4-0.9,0.7-1.2c0.3-0.3,0.6-0.6,1-0.8c0.4-0.2,0.9-0.3,1.4-0.3
				c0.5,0,1,0.1,1.4,0.3c0.4,0.2,0.7,0.4,1,0.8c0.3,0.3,0.5,0.7,0.6,1.2c0.1,0.4,0.2,0.9,0.2,1.4v0.6h-5v0.2c0,0.6,0.2,1,0.5,1.4
				c0.3,0.4,0.8,0.5,1.4,0.5c0.4,0,0.8-0.1,1.1-0.3c0.3-0.2,0.6-0.5,0.8-0.8l0.9,0.9c-0.3,0.4-0.7,0.8-1.2,1.1
				C-3758.4,1442.5-3759,1442.7-3759.7,1442.7z M-3759.7,1436.2c-0.3,0-0.5,0-0.7,0.1c-0.2,0.1-0.4,0.2-0.6,0.4s-0.3,0.4-0.4,0.6
				s-0.1,0.5-0.1,0.8v0.1h3.4v-0.1c0-0.6-0.1-1-0.4-1.4C-3758.8,1436.4-3759.2,1436.2-3759.7,1436.2z"/>
			<path class="st2" d="M-3754.8,1442.5v-7.3h1.5v1.4h0.1c0.1-0.4,0.3-0.7,0.6-1c0.3-0.3,0.8-0.4,1.4-0.4h0.4v1.5h-0.6
				c-0.6,0-1.1,0.1-1.4,0.3c-0.3,0.2-0.5,0.5-0.5,0.9v4.6H-3754.8z"/>
			<path class="st2" d="M-3748.6,1433.9c-0.3,0-0.5-0.1-0.7-0.2s-0.2-0.3-0.2-0.6v-0.2c0-0.2,0.1-0.4,0.2-0.6
				c0.1-0.1,0.4-0.2,0.7-0.2s0.5,0.1,0.7,0.2c0.1,0.1,0.2,0.3,0.2,0.6v0.2c0,0.2-0.1,0.4-0.2,0.6
				C-3748.1,1433.8-3748.3,1433.9-3748.6,1433.9z M-3749.4,1435.2h1.5v7.3h-1.5V1435.2z"/>
			<path class="st2" d="M-3742.8,1442.7c-0.5,0-1-0.1-1.4-0.3c-0.4-0.2-0.8-0.4-1-0.8c-0.3-0.3-0.5-0.7-0.7-1.2
				c-0.2-0.5-0.2-1-0.2-1.6c0-0.6,0.1-1.1,0.2-1.6s0.4-0.9,0.7-1.2c0.3-0.3,0.6-0.6,1-0.8c0.4-0.2,0.9-0.3,1.4-0.3
				c0.5,0,1,0.1,1.4,0.3c0.4,0.2,0.7,0.4,1,0.8c0.3,0.3,0.5,0.7,0.6,1.2c0.1,0.4,0.2,0.9,0.2,1.4v0.6h-5v0.2c0,0.6,0.2,1,0.5,1.4
				c0.3,0.4,0.8,0.5,1.4,0.5c0.4,0,0.8-0.1,1.1-0.3c0.3-0.2,0.6-0.5,0.8-0.8l0.9,0.9c-0.3,0.4-0.7,0.8-1.2,1.1
				C-3741.6,1442.5-3742.2,1442.7-3742.8,1442.7z M-3742.8,1436.2c-0.3,0-0.5,0-0.7,0.1c-0.2,0.1-0.4,0.2-0.6,0.4s-0.3,0.4-0.4,0.6
				s-0.1,0.5-0.1,0.8v0.1h3.4v-0.1c0-0.6-0.1-1-0.4-1.4C-3741.9,1436.4-3742.3,1436.2-3742.8,1436.2z"/>
			<path class="st2" d="M-3737.9,1442.5v-7.3h1.5v1.2h0.1c0.2-0.4,0.4-0.7,0.7-1c0.3-0.3,0.8-0.4,1.3-0.4c0.7,0,1.3,0.2,1.7,0.7
				c0.4,0.5,0.6,1.2,0.6,2.1v4.6h-1.5v-4.4c0-1.1-0.5-1.7-1.4-1.7c-0.2,0-0.4,0-0.6,0.1c-0.2,0.1-0.4,0.1-0.5,0.2
				c-0.1,0.1-0.3,0.2-0.4,0.4c-0.1,0.2-0.1,0.3-0.1,0.6v4.9H-3737.9z"/>
			<path class="st2" d="M-3727,1442.7c-0.5,0-1-0.1-1.4-0.3c-0.4-0.2-0.8-0.4-1-0.8c-0.3-0.3-0.5-0.7-0.6-1.2
				c-0.1-0.5-0.2-1-0.2-1.6c0-0.6,0.1-1.1,0.2-1.6c0.1-0.5,0.4-0.9,0.6-1.2c0.3-0.3,0.6-0.6,1-0.8c0.4-0.2,0.9-0.3,1.4-0.3
				c0.7,0,1.3,0.2,1.8,0.5c0.5,0.3,0.8,0.8,1,1.3l-1.3,0.6c-0.1-0.3-0.3-0.6-0.5-0.8c-0.3-0.2-0.6-0.3-1-0.3c-0.6,0-1,0.2-1.3,0.5
				c-0.3,0.3-0.4,0.8-0.4,1.4v1.3c0,0.6,0.1,1,0.4,1.4c0.3,0.3,0.7,0.5,1.3,0.5c0.4,0,0.8-0.1,1.1-0.3c0.3-0.2,0.5-0.5,0.6-0.9
				l1.2,0.6c-0.2,0.6-0.6,1.1-1.1,1.4C-3725.7,1442.5-3726.3,1442.7-3727,1442.7z"/>
			<path class="st2" d="M-3719.9,1442.7c-0.5,0-1-0.1-1.4-0.3c-0.4-0.2-0.8-0.4-1-0.8c-0.3-0.3-0.5-0.7-0.7-1.2
				c-0.2-0.5-0.2-1-0.2-1.6c0-0.6,0.1-1.1,0.2-1.6s0.4-0.9,0.7-1.2c0.3-0.3,0.6-0.6,1-0.8c0.4-0.2,0.9-0.3,1.4-0.3
				c0.5,0,1,0.1,1.4,0.3c0.4,0.2,0.7,0.4,1,0.8c0.3,0.3,0.5,0.7,0.6,1.2c0.1,0.4,0.2,0.9,0.2,1.4v0.6h-5v0.2c0,0.6,0.2,1,0.5,1.4
				c0.3,0.4,0.8,0.5,1.4,0.5c0.4,0,0.8-0.1,1.1-0.3c0.3-0.2,0.6-0.5,0.8-0.8l0.9,0.9c-0.3,0.4-0.7,0.8-1.2,1.1
				C-3718.6,1442.5-3719.2,1442.7-3719.9,1442.7z M-3719.9,1436.2c-0.3,0-0.5,0-0.7,0.1c-0.2,0.1-0.4,0.2-0.6,0.4s-0.3,0.4-0.4,0.6
				s-0.1,0.5-0.1,0.8v0.1h3.4v-0.1c0-0.6-0.1-1-0.4-1.4C-3719,1436.4-3719.4,1436.2-3719.9,1436.2z"/>
			<path class="st2" d="M-3711.5,1432.7h3.5c0.6,0,1.2,0.1,1.7,0.3s0.9,0.5,1.3,0.9s0.6,0.9,0.8,1.5c0.2,0.6,0.3,1.3,0.3,2.1
				c0,0.8-0.1,1.5-0.3,2.1c-0.2,0.6-0.5,1.1-0.8,1.5c-0.4,0.4-0.8,0.7-1.3,0.9c-0.5,0.2-1.1,0.3-1.7,0.3h-3.5V1432.7z
				 M-3708.1,1441.1c0.7,0,1.3-0.2,1.8-0.7c0.4-0.5,0.7-1.1,0.7-2v-1.6c0-0.9-0.2-1.6-0.7-2c-0.4-0.5-1-0.7-1.8-0.7h-1.9v7H-3708.1z
				"/>
			<path class="st2" d="M-3702,1432.7h4.3c0.8,0,1.4,0.2,1.9,0.7s0.7,1.1,0.7,1.8c0,0.4-0.1,0.7-0.2,0.9c-0.1,0.3-0.2,0.5-0.4,0.6
				c-0.2,0.2-0.3,0.3-0.5,0.4c-0.2,0.1-0.4,0.1-0.6,0.1v0.1c0.2,0,0.4,0.1,0.7,0.1c0.2,0.1,0.5,0.2,0.7,0.4c0.2,0.2,0.4,0.4,0.5,0.7
				c0.1,0.3,0.2,0.6,0.2,1c0,0.4-0.1,0.8-0.2,1.1c-0.1,0.3-0.3,0.6-0.5,0.9c-0.2,0.3-0.5,0.5-0.8,0.6c-0.3,0.1-0.6,0.2-1,0.2h-4.8
				V1432.7z M-3700.4,1436.9h2.4c0.4,0,0.7-0.1,0.9-0.3c0.2-0.2,0.3-0.5,0.3-0.9v-0.4c0-0.4-0.1-0.7-0.3-0.9
				c-0.2-0.2-0.5-0.3-0.9-0.3h-2.4V1436.9z M-3700.4,1441.1h2.7c0.4,0,0.7-0.1,1-0.3s0.4-0.5,0.4-0.9v-0.5c0-0.4-0.1-0.7-0.4-0.9
				s-0.6-0.3-1-0.3h-2.7V1441.1z"/>
			<path class="st2" d="M-3690,1442.7c-0.5,0-1-0.1-1.4-0.3c-0.4-0.2-0.8-0.4-1.1-0.8c-0.3-0.3-0.5-0.7-0.7-1.2
				c-0.2-0.5-0.2-1-0.2-1.6c0-0.6,0.1-1.1,0.2-1.6s0.4-0.9,0.7-1.2c0.3-0.3,0.6-0.6,1.1-0.8c0.4-0.2,0.9-0.3,1.4-0.3
				c0.5,0,1,0.1,1.4,0.3c0.4,0.2,0.8,0.4,1.1,0.8c0.3,0.3,0.5,0.7,0.7,1.2c0.2,0.5,0.2,1,0.2,1.6c0,0.6-0.1,1.1-0.2,1.6
				c-0.2,0.5-0.4,0.9-0.7,1.2c-0.3,0.3-0.6,0.6-1.1,0.8C-3689,1442.6-3689.5,1442.7-3690,1442.7z M-3690,1441.4
				c0.5,0,0.9-0.2,1.3-0.5c0.3-0.3,0.5-0.8,0.5-1.4v-1.2c0-0.6-0.2-1.1-0.5-1.4s-0.7-0.5-1.3-0.5c-0.5,0-0.9,0.2-1.3,0.5
				s-0.5,0.8-0.5,1.4v1.2c0,0.6,0.2,1.1,0.5,1.4C-3690.9,1441.2-3690.5,1441.4-3690,1441.4z"/>
			<path class="st2" d="M-3683,1442.5c-0.5,0-0.9-0.1-1.2-0.4c-0.3-0.3-0.4-0.7-0.4-1.2v-4.5h-1.1v-1.2h0.6c0.3,0,0.4-0.1,0.5-0.2
				c0.1-0.1,0.1-0.3,0.1-0.5v-1.3h1.4v2h1.5v1.2h-1.5v4.8h1.4v1.2H-3683z"/>
		</g>
		<g>
			<path class="st2" d="M-3780.8,1463.9c-1,0-1.9-0.2-2.8-0.5c-0.8-0.3-1.5-0.8-2.1-1.5c-0.6-0.7-1-1.5-1.4-2.5
				c-0.3-1-0.5-2.1-0.5-3.4s0.2-2.5,0.5-3.4c0.3-1,0.8-1.8,1.4-2.5c0.6-0.7,1.3-1.2,2.1-1.5c0.8-0.3,1.8-0.5,2.8-0.5
				s1.9,0.2,2.8,0.5c0.8,0.3,1.5,0.8,2.1,1.5c0.6,0.7,1,1.5,1.4,2.5c0.3,1,0.5,2.1,0.5,3.4s-0.2,2.5-0.5,3.4c-0.3,1-0.8,1.8-1.4,2.5
				c-0.6,0.7-1.3,1.2-2.1,1.5C-3778.9,1463.7-3779.8,1463.9-3780.8,1463.9z M-3780.8,1460.9c1,0,1.8-0.3,2.4-1
				c0.6-0.7,0.8-1.6,0.8-2.8v-2.3c0-1.2-0.3-2.2-0.8-2.8c-0.6-0.7-1.4-1-2.4-1s-1.8,0.3-2.4,1s-0.8,1.6-0.8,2.8v2.3
				c0,1.2,0.3,2.2,0.8,2.8S-3781.8,1460.9-3780.8,1460.9z"/>
			<path class="st2" d="M-3764.6,1461.7h-0.1c-0.1,0.3-0.2,0.6-0.4,0.8c-0.2,0.3-0.4,0.5-0.6,0.7c-0.3,0.2-0.6,0.4-0.9,0.5
				s-0.8,0.2-1.2,0.2c-1.2,0-2.1-0.4-2.7-1.2c-0.6-0.8-0.9-1.9-0.9-3.4v-7.3h3.3v7c0,0.7,0.1,1.2,0.4,1.6c0.2,0.4,0.7,0.6,1.3,0.6
				c0.2,0,0.5,0,0.7-0.1c0.2-0.1,0.5-0.2,0.7-0.3c0.2-0.1,0.3-0.3,0.5-0.5c0.1-0.2,0.2-0.4,0.2-0.7v-7.5h3.3v11.5h-3.3V1461.7z"/>
			<path class="st2" d="M-3758.3,1463.6v-11.5h3.3v2.5h0.1c0.1-0.3,0.2-0.6,0.3-0.9s0.3-0.6,0.6-0.8c0.2-0.2,0.5-0.4,0.9-0.6
				s0.7-0.2,1.2-0.2h0.6v3h-0.8c-1,0-1.7,0.1-2.1,0.4c-0.5,0.2-0.7,0.7-0.7,1.4v6.8H-3758.3z"/>
			<path class="st2" d="M-3744.2,1463.6v-11.5h3.3v2h0.1c0.2-0.6,0.6-1.1,1.1-1.6c0.5-0.4,1.2-0.7,2.1-0.7c1.2,0,2.1,0.4,2.7,1.2
				c0.6,0.8,0.9,1.9,0.9,3.4v7.2h-3.3v-7c0-0.7-0.1-1.3-0.4-1.7c-0.2-0.4-0.7-0.5-1.3-0.5c-0.3,0-0.5,0-0.8,0.1
				c-0.2,0.1-0.5,0.2-0.7,0.3c-0.2,0.1-0.4,0.3-0.5,0.5c-0.1,0.2-0.2,0.5-0.2,0.7v7.5H-3744.2z"/>
			<path class="st2" d="M-3726.3,1463.9c-0.9,0-1.7-0.1-2.4-0.4s-1.3-0.7-1.7-1.2s-0.8-1.2-1.1-1.9c-0.2-0.7-0.4-1.6-0.4-2.5
				c0-0.9,0.1-1.7,0.4-2.5c0.2-0.7,0.6-1.4,1-1.9s1-0.9,1.7-1.2c0.7-0.3,1.4-0.4,2.3-0.4c1,0,1.8,0.2,2.5,0.5
				c0.7,0.3,1.2,0.8,1.7,1.3c0.4,0.5,0.7,1.2,0.9,1.9c0.2,0.7,0.3,1.5,0.3,2.2v1h-7.4v0.2c0,0.8,0.2,1.4,0.6,1.8
				c0.4,0.4,1.1,0.7,1.9,0.7c0.7,0,1.2-0.1,1.6-0.4c0.4-0.3,0.8-0.6,1.2-1l1.6,2c-0.5,0.6-1.2,1.1-2,1.4
				C-3724.3,1463.7-3725.2,1463.9-3726.3,1463.9z M-3726.4,1454.2c-0.7,0-1.2,0.2-1.6,0.6c-0.4,0.4-0.6,1-0.6,1.7v0.2h4v-0.2
				c0-0.7-0.2-1.3-0.5-1.7S-3725.7,1454.2-3726.4,1454.2z"/>
			<path class="st2" d="M-3720,1452.1h3.1l1.1,4.7l0.8,3.5h0.1l0.9-3.5l1.3-4.7h3l1.3,4.7l0.9,3.5h0.1l0.8-3.5l1.1-4.7h3l-3.2,11.5
				h-3.4l-1.4-4.9l-0.8-3h-0.1l-0.8,3l-1.4,4.9h-3.3L-3720,1452.1z"/>
			<path class="st2" d="M-3695.2,1447.4h3.3v6.7h0.1c0.2-0.6,0.5-1.2,1.1-1.6c0.6-0.4,1.2-0.6,2-0.6c1.5,0,2.6,0.5,3.3,1.5
				c0.7,1,1.1,2.5,1.1,4.5c0,2-0.4,3.5-1.1,4.5s-1.9,1.6-3.3,1.6c-0.4,0-0.7-0.1-1.1-0.2c-0.3-0.1-0.6-0.3-0.9-0.5
				c-0.3-0.2-0.5-0.4-0.7-0.7c-0.2-0.3-0.3-0.6-0.4-0.9h-0.1v1.9h-3.3V1447.4z M-3689.8,1461.3c0.6,0,1.1-0.2,1.5-0.6
				c0.4-0.4,0.6-1,0.6-1.7v-2c0-0.7-0.2-1.3-0.6-1.7c-0.4-0.4-0.9-0.6-1.5-0.6c-0.6,0-1.1,0.2-1.5,0.5s-0.6,0.7-0.6,1.2v3.4
				c0,0.5,0.2,0.9,0.6,1.2C-3690.9,1461.1-3690.4,1461.3-3689.8,1461.3z"/>
			<path class="st2" d="M-3677.1,1463.9c-0.9,0-1.6-0.1-2.3-0.4s-1.2-0.7-1.7-1.2c-0.5-0.5-0.8-1.2-1.1-1.9
				c-0.2-0.7-0.4-1.6-0.4-2.5s0.1-1.8,0.4-2.5c0.2-0.7,0.6-1.4,1.1-1.9c0.5-0.5,1-0.9,1.7-1.2c0.7-0.3,1.4-0.4,2.3-0.4
				c0.9,0,1.6,0.1,2.3,0.4c0.7,0.3,1.2,0.7,1.7,1.2c0.5,0.5,0.8,1.2,1.1,1.9c0.2,0.7,0.4,1.6,0.4,2.5s-0.1,1.8-0.4,2.5
				c-0.2,0.7-0.6,1.4-1.1,1.9c-0.5,0.5-1,0.9-1.7,1.2S-3676.3,1463.9-3677.1,1463.9z M-3677.1,1461.3c0.6,0,1.1-0.2,1.5-0.6
				c0.4-0.4,0.5-1,0.5-1.7v-2.4c0-0.7-0.2-1.3-0.5-1.7c-0.4-0.4-0.9-0.6-1.5-0.6c-0.6,0-1.1,0.2-1.5,0.6c-0.4,0.4-0.5,1-0.5,1.7v2.4
				c0,0.7,0.2,1.3,0.5,1.7C-3678.3,1461.1-3677.8,1461.3-3677.1,1461.3z"/>
			<path class="st2" d="M-3665.5,1463.6c-1.1,0-2-0.3-2.6-0.9c-0.6-0.6-0.9-1.4-0.9-2.5v-5.7h-1.6v-2.5h0.8c0.4,0,0.7-0.1,0.9-0.3
				c0.2-0.2,0.2-0.5,0.2-0.9v-1.9h2.9v3.1h2.3v2.5h-2.3v6.5h2.1v2.5H-3665.5z"/>
			<path class="st2" d="M-3655.9,1447.4h3.3v6.7h0.1c0.2-0.6,0.5-1.2,1.1-1.6c0.6-0.4,1.2-0.6,2-0.6c1.5,0,2.6,0.5,3.3,1.5
				c0.7,1,1.1,2.5,1.1,4.5c0,2-0.4,3.5-1.1,4.5s-1.9,1.6-3.3,1.6c-0.4,0-0.7-0.1-1.1-0.2c-0.3-0.1-0.6-0.3-0.9-0.5
				c-0.3-0.2-0.5-0.4-0.7-0.7c-0.2-0.3-0.3-0.6-0.4-0.9h-0.1v1.9h-3.3V1447.4z M-3650.5,1461.3c0.6,0,1.1-0.2,1.5-0.6
				c0.4-0.4,0.6-1,0.6-1.7v-2c0-0.7-0.2-1.3-0.6-1.7c-0.4-0.4-0.9-0.6-1.5-0.6c-0.6,0-1.1,0.2-1.5,0.5s-0.6,0.7-0.6,1.2v3.4
				c0,0.5,0.2,0.9,0.6,1.2C-3651.6,1461.1-3651.1,1461.3-3650.5,1461.3z"/>
			<path class="st2" d="M-3635.7,1461.7h-0.1c-0.1,0.3-0.2,0.6-0.4,0.8c-0.2,0.3-0.4,0.5-0.6,0.7c-0.3,0.2-0.6,0.4-0.9,0.5
				s-0.8,0.2-1.2,0.2c-1.2,0-2.1-0.4-2.7-1.2c-0.6-0.8-0.9-1.9-0.9-3.4v-7.3h3.3v7c0,0.7,0.1,1.2,0.4,1.6c0.2,0.4,0.7,0.6,1.3,0.6
				c0.2,0,0.5,0,0.7-0.1c0.2-0.1,0.5-0.2,0.7-0.3c0.2-0.1,0.3-0.3,0.5-0.5c0.1-0.2,0.2-0.4,0.2-0.7v-7.5h3.3v11.5h-3.3V1461.7z"/>
			<path class="st2" d="M-3627.8,1450.9c-0.7,0-1.1-0.2-1.4-0.5c-0.3-0.3-0.5-0.7-0.5-1.2v-0.5c0-0.5,0.2-0.9,0.5-1.2
				c0.3-0.3,0.8-0.5,1.4-0.5s1.1,0.2,1.4,0.5c0.3,0.3,0.5,0.7,0.5,1.2v0.5c0,0.5-0.2,0.9-0.5,1.2
				C-3626.6,1450.7-3627.1,1450.9-3627.8,1450.9z M-3629.4,1452.1h3.3v11.5h-3.3V1452.1z"/>
			<path class="st2" d="M-3619.9,1463.6c-1.1,0-1.9-0.3-2.5-0.8c-0.5-0.5-0.8-1.3-0.8-2.4v-13.1h3.3v13.8h1.5v2.5H-3619.9z"/>
			<path class="st2" d="M-3609.4,1461.7h-0.1c-0.1,0.3-0.2,0.6-0.4,0.9c-0.2,0.3-0.4,0.5-0.7,0.7c-0.3,0.2-0.6,0.4-0.9,0.5
				c-0.3,0.1-0.7,0.2-1.1,0.2c-1.5,0-2.6-0.5-3.3-1.6s-1.1-2.5-1.1-4.5c0-2,0.4-3.5,1.1-4.5c0.7-1,1.9-1.5,3.3-1.5
				c0.7,0,1.4,0.2,2,0.6c0.6,0.4,0.9,0.9,1.1,1.6h0.1v-6.7h3.3v16.3h-3.3V1461.7z M-3611.5,1461.3c0.6,0,1.1-0.2,1.5-0.5
				c0.4-0.3,0.6-0.7,0.6-1.2v-3.4c0-0.5-0.2-0.9-0.6-1.2c-0.4-0.3-0.9-0.5-1.5-0.5c-0.6,0-1.1,0.2-1.5,0.6c-0.4,0.4-0.6,1-0.6,1.7v2
				c0,0.7,0.2,1.3,0.6,1.7C-3612.6,1461-3612.1,1461.3-3611.5,1461.3z"/>
			<path class="st2" d="M-3598.3,1463.9c-0.9,0-1.7-0.1-2.4-0.4s-1.3-0.7-1.7-1.2s-0.8-1.2-1.1-1.9c-0.2-0.7-0.4-1.6-0.4-2.5
				c0-0.9,0.1-1.7,0.4-2.5c0.2-0.7,0.6-1.4,1-1.9s1-0.9,1.7-1.2c0.7-0.3,1.4-0.4,2.3-0.4c1,0,1.8,0.2,2.5,0.5
				c0.7,0.3,1.2,0.8,1.7,1.3c0.4,0.5,0.7,1.2,0.9,1.9c0.2,0.7,0.3,1.5,0.3,2.2v1h-7.4v0.2c0,0.8,0.2,1.4,0.6,1.8
				c0.4,0.4,1.1,0.7,1.9,0.7c0.7,0,1.2-0.1,1.6-0.4c0.4-0.3,0.8-0.6,1.2-1l1.6,2c-0.5,0.6-1.2,1.1-2,1.4
				C-3596.3,1463.7-3597.2,1463.9-3598.3,1463.9z M-3598.3,1454.2c-0.7,0-1.2,0.2-1.6,0.6c-0.4,0.4-0.6,1-0.6,1.7v0.2h4v-0.2
				c0-0.7-0.2-1.3-0.5-1.7S-3597.7,1454.2-3598.3,1454.2z"/>
			<path class="st2" d="M-3590.7,1463.6v-11.5h3.3v2.5h0.1c0.1-0.3,0.2-0.6,0.3-0.9s0.3-0.6,0.6-0.8c0.2-0.2,0.5-0.4,0.9-0.6
				s0.7-0.2,1.2-0.2h0.6v3h-0.8c-1,0-1.7,0.1-2.1,0.4c-0.5,0.2-0.7,0.7-0.7,1.4v6.8H-3590.7z"/>
		</g>
	</g>
	<circle class="st3" cx="-1565.8" cy="2401.9" r="26.4"/>
	<circle class="st5" cx="-1652" cy="2401.9" r="26.4"/>
	<circle class="st1" cx="-1738.1" cy="2401.9" r="26.4"/>
	<circle class="st6" cx="-1221.4" cy="2401.9" r="26.4"/>
	<circle class="st7" cx="-1307.5" cy="2401.9" r="26.4"/>
	<circle class="st8" cx="-1393.6" cy="2401.9" r="26.4"/>
	<circle class="st9" cx="-1049.2" cy="2401.9" r="26.4"/>
	<circle class="st10" cx="-1135.3" cy="2401.9" r="26.4"/>
	<circle class="st11" cx="-1479.7" cy="2401.9" r="26.4"/>
	<g>
		<g>
			<path class="st1" d="M-309.7,2783.6h1160c22.1,0,40,17.9,40,40v240c0,22.1-17.9,40-40,40h-1160c-22.1,0-40-17.9-40-40v-240
				C-349.7,2801.5-331.8,2783.6-309.7,2783.6z"/>
			<g>
				<path class="st2" d="M-18,2993.6l-31.5-97.7H-28l14.6,46.9l7.7,30.7h0.4l7.4-30.7l14.6-46.9h20.9l-31.8,97.7H-18z"/>
				<path class="st2" d="M59.5,2912.3c-4.2,0-7.3-1-9.2-2.9c-1.9-1.9-2.9-4.4-2.9-7.3v-3.1c0-3,1-5.4,2.9-7.4c1.9-1.9,5-2.9,9.2-2.9
					c4.2,0,7.3,1,9.2,2.9c1.9,1.9,2.9,4.4,2.9,7.4v3.1c0,3-1,5.4-2.9,7.3C66.8,2911.3,63.7,2912.3,59.5,2912.3z M49.2,2920.1h20.7
					v73.5H49.2V2920.1z"/>
				<path class="st2" d="M114.1,2995.3c-7.1,0-13.1-1.1-17.9-3.4c-4.9-2.3-9.2-5.5-13-9.7l12.2-12.3c2.6,2.9,5.5,5.2,8.7,6.9
					c3.2,1.7,6.8,2.5,10.8,2.5c4.1,0,7-0.6,8.5-1.9c1.6-1.3,2.4-3,2.4-5.1c0-3.5-2.5-5.5-7.4-6.2l-8-1c-16.5-2.1-24.8-9.6-24.8-22.7
					c0-3.5,0.7-6.8,2-9.7c1.4-2.9,3.3-5.5,5.7-7.6c2.5-2.1,5.5-3.7,9-4.9c3.5-1.2,7.4-1.8,11.8-1.8c3.8,0,7.2,0.3,10.2,0.8
					c2.9,0.5,5.6,1.3,7.8,2.2c2.3,1,4.4,2.2,6.3,3.6c1.9,1.4,3.8,3.1,5.7,4.8l-11.9,12.2c-2.3-2.3-5-4.2-7.9-5.5c-2.9-1.4-6-2-9-2
					c-3.5,0-6.1,0.6-7.6,1.7c-1.5,1.1-2.2,2.6-2.2,4.5c0,2,0.5,3.5,1.6,4.6c1.1,1.1,3.1,1.8,6.1,2.3l8.3,1.1
					c16.1,2.1,24.2,9.5,24.2,22.1c0,3.5-0.7,6.8-2.2,9.8c-1.5,3-3.6,5.6-6.4,7.8c-2.8,2.2-6.1,3.9-9.9,5.1
					C123.2,2994.7,118.9,2995.3,114.1,2995.3z"/>
				<path class="st2" d="M170.1,2912.3c-4.2,0-7.3-1-9.2-2.9c-1.9-1.9-2.9-4.4-2.9-7.3v-3.1c0-3,1-5.4,2.9-7.4
					c1.9-1.9,5-2.9,9.2-2.9c4.2,0,7.3,1,9.2,2.9c1.9,1.9,2.9,4.4,2.9,7.4v3.1c0,3-1,5.4-2.9,7.3
					C177.4,2911.3,174.3,2912.3,170.1,2912.3z M159.8,2920.1h20.7v73.5h-20.7V2920.1z"/>
				<path class="st2" d="M225.6,2993.6c-7.2,0-12.6-1.8-16.3-5.5c-3.7-3.6-5.5-9-5.5-16v-36h-10.4v-16.1h5.2c2.8,0,4.7-0.7,5.7-2
					c1-1.4,1.5-3.3,1.5-5.8v-12h18.6v19.9H239v16.1h-14.6v41.3h13.4v16.1H225.6z"/>
				<path class="st2" d="M287.6,2895.9h36.8c6.4,0,12.3,1,17.6,3.1c5.3,2.1,9.8,5.1,13.6,9.2c3.7,4.1,6.6,9.1,8.7,15.3
					c2.1,6.1,3.1,13.2,3.1,21.3c0,8.1-1,15.2-3.1,21.3c-2.1,6.1-4.9,11.2-8.7,15.3c-3.7,4.1-8.3,7.1-13.6,9.2
					c-5.3,2.1-11.2,3.1-17.6,3.1h-36.8V2895.9z M324.4,2974.7c6.3,0,11.3-1.8,15-5.3s5.5-9.2,5.5-17.1v-15.1
					c0-7.8-1.8-13.5-5.5-17.1c-3.6-3.5-8.6-5.3-15-5.3h-15.5v59.9H324.4z"/>
				<path class="st2" d="M384.1,2890h20.7v42.4h0.7c1-4.1,3.4-7.5,7.1-10.1c3.7-2.6,7.9-3.9,12.7-3.9c9.3,0,16.4,3.3,21.1,9.8
					s7.1,16.1,7.1,28.6c0,12.5-2.4,22.1-7.1,28.6s-11.8,9.9-21.1,9.9c-2.4,0-4.7-0.3-6.9-1c-2.1-0.7-4.1-1.7-5.8-2.9
					c-1.7-1.3-3.2-2.8-4.4-4.5c-1.2-1.7-2.1-3.6-2.7-5.5h-0.7v12.3h-20.7V2890z M418.4,2978.5c3.9,0,7.2-1.4,9.7-4.1
					c2.6-2.8,3.8-6.5,3.8-11.1v-12.7c0-4.7-1.3-8.4-3.8-11.1c-2.6-2.8-5.8-4.1-9.7-4.1s-7.2,1-9.7,2.9c-2.6,1.9-3.9,4.6-3.9,7.9
					v21.7c0,3.4,1.3,6,3.9,7.9C411.2,2977.6,414.4,2978.5,418.4,2978.5z"/>
				<path class="st2" d="M499,2995.3c-5.4,0-10.2-0.9-14.5-2.7c-4.2-1.8-7.8-4.3-10.8-7.7s-5.2-7.4-6.8-12.2
					c-1.6-4.8-2.4-10.1-2.4-16c0-5.9,0.8-11.2,2.4-16c1.6-4.8,3.8-8.8,6.8-12.1s6.5-5.9,10.8-7.6c4.2-1.8,9.1-2.7,14.5-2.7
					c5.4,0,10.2,0.9,14.5,2.7c4.2,1.8,7.8,4.3,10.8,7.6s5.2,7.3,6.8,12.1c1.6,4.8,2.4,10.1,2.4,16c0,5.9-0.8,11.2-2.4,16
					c-1.6,4.8-3.8,8.8-6.8,12.2s-6.5,5.9-10.8,7.7C509.2,2994.4,504.4,2995.3,499,2995.3z M499,2978.9c4.1,0,7.3-1.3,9.5-3.8
					c2.2-2.5,3.4-6.1,3.4-10.8v-15c0-4.7-1.1-8.3-3.4-10.8s-5.4-3.8-9.5-3.8c-4.1,0-7.3,1.3-9.5,3.8s-3.4,6.1-3.4,10.8v15
					c0,4.7,1.1,8.3,3.4,10.8C491.7,2977.7,494.9,2978.9,499,2978.9z"/>
				<path class="st2" d="M573.9,2993.6c-7.2,0-12.6-1.8-16.3-5.5c-3.7-3.6-5.5-9-5.5-16v-36h-10.4v-16.1h5.2c2.8,0,4.7-0.7,5.7-2
					c1-1.4,1.5-3.3,1.5-5.8v-12h18.6v19.9h14.6v16.1h-14.6v41.3h13.4v16.1H573.9z"/>
			</g>
		</g>
	</g>
	<g>
		<path class="st11" d="M-1565.3,2680.8v-9.8h6.3v1.4h-4.7v2.7h4.2v1.4h-4.2v2.9h4.7v1.4H-1565.3z"/>
		<path class="st11" d="M-1557.9,2680.8l2.6-3.7l-2.5-3.6h1.8l1.6,2.5h0l1.7-2.5h1.6l-2.5,3.6l2.5,3.7h-1.8l-1.7-2.6h0l-1.8,2.6
			H-1557.9z"/>
		<path class="st11" d="M-1549.7,2673.6h1.5v1.2h0.1c0.2-0.4,0.4-0.8,0.8-1s0.8-0.4,1.3-0.4c0.9,0,1.6,0.3,2.1,1
			c0.5,0.7,0.8,1.6,0.8,2.8s-0.3,2.1-0.8,2.8s-1.2,1-2.1,1c-0.5,0-0.9-0.1-1.3-0.4c-0.4-0.2-0.6-0.6-0.8-1h-0.1v4h-1.5V2673.6z
			 M-1546.5,2679.7c0.5,0,1-0.2,1.3-0.5s0.5-0.8,0.5-1.4v-1.3c0-0.6-0.2-1-0.5-1.4s-0.7-0.5-1.3-0.5c-0.5,0-0.9,0.1-1.2,0.3
			c-0.3,0.2-0.5,0.5-0.5,0.9v2.5c0,0.4,0.2,0.7,0.5,0.9C-1547.3,2679.6-1546.9,2679.7-1546.5,2679.7z"/>
		<path class="st11" d="M-1538.5,2681c-0.5,0-1-0.1-1.4-0.3c-0.4-0.2-0.8-0.4-1-0.8c-0.3-0.3-0.5-0.7-0.7-1.2
			c-0.2-0.5-0.2-1-0.2-1.6c0-0.6,0.1-1.1,0.2-1.6c0.2-0.5,0.4-0.9,0.7-1.2s0.6-0.6,1-0.8c0.4-0.2,0.9-0.3,1.4-0.3
			c0.5,0,1,0.1,1.4,0.3s0.7,0.4,1,0.8c0.3,0.3,0.5,0.7,0.6,1.2c0.1,0.4,0.2,0.9,0.2,1.4v0.6h-5v0.2c0,0.6,0.2,1,0.5,1.4
			c0.3,0.4,0.8,0.5,1.4,0.5c0.4,0,0.8-0.1,1.1-0.3c0.3-0.2,0.6-0.5,0.8-0.8l0.9,0.9c-0.3,0.4-0.7,0.8-1.2,1.1
			S-1537.8,2681-1538.5,2681z M-1538.5,2674.6c-0.3,0-0.5,0-0.7,0.1c-0.2,0.1-0.4,0.2-0.6,0.4c-0.2,0.2-0.3,0.4-0.4,0.6
			s-0.1,0.5-0.1,0.8v0.1h3.4v-0.1c0-0.6-0.1-1-0.4-1.4C-1537.6,2674.8-1538,2674.6-1538.5,2674.6z"/>
		<path class="st11" d="M-1533.6,2680.8v-7.3h1.5v1.4h0.1c0.1-0.4,0.3-0.7,0.6-1c0.3-0.3,0.8-0.4,1.4-0.4h0.4v1.5h-0.6
			c-0.6,0-1.1,0.1-1.4,0.3c-0.3,0.2-0.5,0.5-0.5,0.9v4.6H-1533.6z"/>
		<path class="st11" d="M-1527.5,2672.3c-0.3,0-0.5-0.1-0.7-0.2s-0.2-0.3-0.2-0.6v-0.2c0-0.2,0.1-0.4,0.2-0.6
			c0.1-0.1,0.4-0.2,0.7-0.2s0.5,0.1,0.7,0.2c0.1,0.1,0.2,0.3,0.2,0.6v0.2c0,0.2-0.1,0.4-0.2,0.6S-1527.1,2672.3-1527.5,2672.3z
			 M-1528.2,2673.6h1.5v7.3h-1.5V2673.6z"/>
		<path class="st11" d="M-1521.7,2681c-0.5,0-1-0.1-1.4-0.3c-0.4-0.2-0.8-0.4-1-0.8c-0.3-0.3-0.5-0.7-0.7-1.2
			c-0.2-0.5-0.2-1-0.2-1.6c0-0.6,0.1-1.1,0.2-1.6c0.2-0.5,0.4-0.9,0.7-1.2c0.3-0.3,0.6-0.6,1-0.8c0.4-0.2,0.9-0.3,1.4-0.3
			c0.5,0,1,0.1,1.4,0.3c0.4,0.2,0.7,0.4,1,0.8c0.3,0.3,0.5,0.7,0.6,1.2c0.1,0.4,0.2,0.9,0.2,1.4v0.6h-5v0.2c0,0.6,0.2,1,0.5,1.4
			c0.3,0.4,0.8,0.5,1.4,0.5c0.4,0,0.8-0.1,1.1-0.3c0.3-0.2,0.6-0.5,0.8-0.8l0.9,0.9c-0.3,0.4-0.7,0.8-1.2,1.1
			C-1520.4,2680.9-1521,2681-1521.7,2681z M-1521.7,2674.6c-0.3,0-0.5,0-0.7,0.1c-0.2,0.1-0.4,0.2-0.6,0.4c-0.2,0.2-0.3,0.4-0.4,0.6
			s-0.1,0.5-0.1,0.8v0.1h3.4v-0.1c0-0.6-0.1-1-0.4-1.4S-1521.2,2674.6-1521.7,2674.6z"/>
		<path class="st11" d="M-1516.7,2680.8v-7.3h1.5v1.2h0.1c0.2-0.4,0.4-0.7,0.7-1c0.3-0.3,0.8-0.4,1.3-0.4c0.7,0,1.3,0.2,1.7,0.7
			s0.6,1.2,0.6,2.1v4.6h-1.5v-4.4c0-1.1-0.5-1.7-1.4-1.7c-0.2,0-0.4,0-0.6,0.1c-0.2,0.1-0.4,0.1-0.5,0.2c-0.1,0.1-0.3,0.2-0.4,0.4
			c-0.1,0.2-0.1,0.3-0.1,0.6v4.9H-1516.7z"/>
		<path class="st11" d="M-1505.8,2681c-0.5,0-1-0.1-1.4-0.3c-0.4-0.2-0.8-0.4-1-0.8c-0.3-0.3-0.5-0.7-0.6-1.2
			c-0.1-0.5-0.2-1-0.2-1.6c0-0.6,0.1-1.1,0.2-1.6s0.4-0.9,0.6-1.2c0.3-0.3,0.6-0.6,1-0.8c0.4-0.2,0.9-0.3,1.4-0.3
			c0.7,0,1.3,0.2,1.8,0.5c0.5,0.3,0.8,0.8,1,1.3l-1.3,0.6c-0.1-0.3-0.3-0.6-0.5-0.8c-0.3-0.2-0.6-0.3-1-0.3c-0.6,0-1,0.2-1.3,0.5
			c-0.3,0.3-0.4,0.8-0.4,1.4v1.3c0,0.6,0.1,1,0.4,1.4c0.3,0.3,0.7,0.5,1.3,0.5c0.4,0,0.8-0.1,1.1-0.3c0.3-0.2,0.5-0.5,0.6-0.9
			l1.2,0.6c-0.2,0.6-0.6,1.1-1.1,1.4C-1504.5,2680.8-1505.1,2681-1505.8,2681z"/>
		<path class="st11" d="M-1498.7,2681c-0.5,0-1-0.1-1.4-0.3c-0.4-0.2-0.8-0.4-1-0.8c-0.3-0.3-0.5-0.7-0.7-1.2
			c-0.2-0.5-0.2-1-0.2-1.6c0-0.6,0.1-1.1,0.2-1.6s0.4-0.9,0.7-1.2s0.6-0.6,1-0.8c0.4-0.2,0.9-0.3,1.4-0.3c0.5,0,1,0.1,1.4,0.3
			c0.4,0.2,0.7,0.4,1,0.8c0.3,0.3,0.5,0.7,0.6,1.2c0.1,0.4,0.2,0.9,0.2,1.4v0.6h-5v0.2c0,0.6,0.2,1,0.5,1.4c0.3,0.4,0.8,0.5,1.4,0.5
			c0.4,0,0.8-0.1,1.1-0.3c0.3-0.2,0.6-0.5,0.8-0.8l0.9,0.9c-0.3,0.4-0.7,0.8-1.2,1.1C-1497.4,2680.9-1498,2681-1498.7,2681z
			 M-1498.7,2674.6c-0.3,0-0.5,0-0.7,0.1c-0.2,0.1-0.4,0.2-0.6,0.4s-0.3,0.4-0.4,0.6s-0.1,0.5-0.1,0.8v0.1h3.4v-0.1
			c0-0.6-0.1-1-0.4-1.4S-1498.2,2674.6-1498.7,2674.6z"/>
		<path class="st11" d="M-1487.6,2681c-0.5,0-1-0.1-1.4-0.3c-0.4-0.2-0.8-0.4-1.1-0.8c-0.3-0.3-0.5-0.7-0.7-1.2
			c-0.2-0.5-0.2-1-0.2-1.6c0-0.6,0.1-1.1,0.2-1.6c0.2-0.5,0.4-0.9,0.7-1.2s0.6-0.6,1.1-0.8c0.4-0.2,0.9-0.3,1.4-0.3s1,0.1,1.4,0.3
			c0.4,0.2,0.8,0.4,1.1,0.8s0.5,0.7,0.7,1.2c0.2,0.5,0.2,1,0.2,1.6c0,0.6-0.1,1.1-0.2,1.6c-0.2,0.5-0.4,0.9-0.7,1.2
			c-0.3,0.3-0.6,0.6-1.1,0.8C-1486.6,2680.9-1487.1,2681-1487.6,2681z M-1487.6,2679.7c0.5,0,0.9-0.2,1.3-0.5
			c0.3-0.3,0.5-0.8,0.5-1.4v-1.2c0-0.6-0.2-1.1-0.5-1.4s-0.7-0.5-1.3-0.5c-0.5,0-0.9,0.2-1.3,0.5c-0.3,0.3-0.5,0.8-0.5,1.4v1.2
			c0,0.6,0.2,1.1,0.5,1.4C-1488.6,2679.6-1488.1,2679.7-1487.6,2679.7z"/>
		<path class="st11" d="M-1478.2,2679.6L-1478.2,2679.6c-0.1,0.2-0.2,0.4-0.3,0.5c-0.1,0.2-0.2,0.3-0.4,0.4
			c-0.2,0.1-0.4,0.2-0.6,0.3c-0.2,0.1-0.5,0.1-0.8,0.1c-0.8,0-1.3-0.2-1.8-0.7c-0.4-0.5-0.6-1.2-0.6-2.1v-4.6h1.5v4.4
			c0,1.1,0.5,1.7,1.4,1.7c0.2,0,0.4,0,0.6-0.1c0.2-0.1,0.4-0.1,0.5-0.2c0.1-0.1,0.3-0.2,0.4-0.4c0.1-0.2,0.1-0.3,0.1-0.6v-4.9h1.5
			v7.3h-1.5V2679.6z"/>
		<path class="st11" d="M-1474.5,2680.8v-7.3h1.5v1.4h0.1c0.1-0.4,0.3-0.7,0.6-1c0.3-0.3,0.8-0.4,1.4-0.4h0.4v1.5h-0.6
			c-0.6,0-1.1,0.1-1.4,0.3c-0.3,0.2-0.5,0.5-0.5,0.9v4.6H-1474.5z"/>
		<path class="st11" d="M-1465.8,2680.8v-7.3h1.5v1.2h0.1c0.2-0.4,0.4-0.7,0.7-1c0.3-0.3,0.8-0.4,1.3-0.4c0.7,0,1.3,0.2,1.7,0.7
			c0.4,0.5,0.6,1.2,0.6,2.1v4.6h-1.5v-4.4c0-1.1-0.5-1.7-1.4-1.7c-0.2,0-0.4,0-0.6,0.1c-0.2,0.1-0.4,0.1-0.5,0.2
			c-0.1,0.1-0.3,0.2-0.4,0.4c-0.1,0.2-0.1,0.3-0.1,0.6v4.9H-1465.8z"/>
		<path class="st11" d="M-1454.8,2681c-0.5,0-1-0.1-1.4-0.3c-0.4-0.2-0.8-0.4-1-0.8c-0.3-0.3-0.5-0.7-0.7-1.2
			c-0.2-0.5-0.2-1-0.2-1.6c0-0.6,0.1-1.1,0.2-1.6s0.4-0.9,0.7-1.2s0.6-0.6,1-0.8c0.4-0.2,0.9-0.3,1.4-0.3c0.5,0,1,0.1,1.4,0.3
			c0.4,0.2,0.7,0.4,1,0.8c0.3,0.3,0.5,0.7,0.6,1.2c0.1,0.4,0.2,0.9,0.2,1.4v0.6h-5v0.2c0,0.6,0.2,1,0.5,1.4c0.3,0.4,0.8,0.5,1.4,0.5
			c0.4,0,0.8-0.1,1.1-0.3c0.3-0.2,0.6-0.5,0.8-0.8l0.9,0.9c-0.3,0.4-0.7,0.8-1.2,1.1C-1453.5,2680.9-1454.1,2681-1454.8,2681z
			 M-1454.8,2674.6c-0.3,0-0.5,0-0.7,0.1c-0.2,0.1-0.4,0.2-0.6,0.4s-0.3,0.4-0.4,0.6s-0.1,0.5-0.1,0.8v0.1h3.4v-0.1
			c0-0.6-0.1-1-0.4-1.4S-1454.3,2674.6-1454.8,2674.6z"/>
		<path class="st11" d="M-1450.7,2673.6h1.5l0.7,3.1l0.7,2.8h0l0.8-2.8l0.9-3.1h1.4l0.9,3.1l0.8,2.8h0l0.6-2.8l0.8-3.1h1.4l-2,7.3
			h-1.7l-1-3.3l-0.6-2h0l-0.6,2l-1,3.3h-1.7L-1450.7,2673.6z"/>
		<path class="st11" d="M-1435.5,2673.6h1.5v1.2h0.1c0.2-0.4,0.4-0.8,0.8-1s0.8-0.4,1.3-0.4c0.9,0,1.6,0.3,2.1,1
			c0.5,0.7,0.8,1.6,0.8,2.8s-0.3,2.1-0.8,2.8s-1.2,1-2.1,1c-0.5,0-0.9-0.1-1.3-0.4c-0.4-0.2-0.6-0.6-0.8-1h-0.1v4h-1.5V2673.6z
			 M-1432.3,2679.7c0.5,0,1-0.2,1.3-0.5s0.5-0.8,0.5-1.4v-1.3c0-0.6-0.2-1-0.5-1.4s-0.7-0.5-1.3-0.5c-0.5,0-0.9,0.1-1.2,0.3
			s-0.5,0.5-0.5,0.9v2.5c0,0.4,0.2,0.7,0.5,0.9C-1433.1,2679.6-1432.8,2679.7-1432.3,2679.7z"/>
		<path class="st11" d="M-1425.6,2680.8c-0.5,0-0.9-0.1-1.2-0.4c-0.3-0.3-0.4-0.6-0.4-1.1v-8.8h1.5v9.1h1v1.2H-1425.6z"/>
		<path class="st11" d="M-1417.9,2680.8c-0.4,0-0.7-0.1-0.9-0.3s-0.3-0.5-0.4-0.9h-0.1c-0.1,0.5-0.4,0.8-0.8,1
			c-0.4,0.2-0.8,0.3-1.4,0.3c-0.8,0-1.3-0.2-1.7-0.6s-0.6-0.9-0.6-1.6c0-0.7,0.3-1.3,0.8-1.6c0.5-0.4,1.3-0.5,2.3-0.5h1.3v-0.6
			c0-0.4-0.1-0.8-0.4-1c-0.2-0.2-0.6-0.4-1.1-0.4c-0.4,0-0.8,0.1-1.1,0.3c-0.3,0.2-0.5,0.4-0.7,0.7l-0.9-0.8c0.2-0.4,0.6-0.7,1-1
			c0.4-0.3,1-0.4,1.7-0.4c0.9,0,1.7,0.2,2.2,0.7s0.8,1.1,0.8,1.9v3.7h0.8v1.2H-1417.9z M-1420.9,2679.8c0.5,0,0.9-0.1,1.2-0.3
			c0.3-0.2,0.5-0.5,0.5-0.8v-1h-1.3c-1.1,0-1.6,0.3-1.6,1v0.3c0,0.3,0.1,0.6,0.3,0.7C-1421.6,2679.8-1421.3,2679.8-1420.9,2679.8z"
			/>
		<path class="st11" d="M-1413.5,2680.8c-0.5,0-0.9-0.1-1.2-0.4c-0.3-0.3-0.4-0.7-0.4-1.2v-4.5h-1.1v-1.2h0.6c0.3,0,0.4-0.1,0.5-0.2
			c0.1-0.1,0.1-0.3,0.1-0.5v-1.3h1.4v2h1.5v1.2h-1.5v4.8h1.4v1.2H-1413.5z"/>
		<path class="st11" d="M-1410.1,2674.8h-1.1v-1.2h1.1v-1.2c0-0.6,0.2-1,0.5-1.4c0.3-0.3,0.8-0.5,1.4-0.5h1.2v1.2h-1.5v1.8h1.5v1.2
			h-1.5v6h-1.5V2674.8z"/>
		<path class="st11" d="M-1403,2681c-0.5,0-1-0.1-1.4-0.3c-0.4-0.2-0.8-0.4-1.1-0.8c-0.3-0.3-0.5-0.7-0.7-1.2
			c-0.2-0.5-0.2-1-0.2-1.6c0-0.6,0.1-1.1,0.2-1.6c0.2-0.5,0.4-0.9,0.7-1.2s0.6-0.6,1.1-0.8c0.4-0.2,0.9-0.3,1.4-0.3s1,0.1,1.4,0.3
			c0.4,0.2,0.8,0.4,1.1,0.8s0.5,0.7,0.7,1.2c0.2,0.5,0.2,1,0.2,1.6c0,0.6-0.1,1.1-0.2,1.6c-0.2,0.5-0.4,0.9-0.7,1.2
			c-0.3,0.3-0.6,0.6-1.1,0.8C-1402,2680.9-1402.5,2681-1403,2681z M-1403,2679.7c0.5,0,0.9-0.2,1.3-0.5c0.3-0.3,0.5-0.8,0.5-1.4
			v-1.2c0-0.6-0.2-1.1-0.5-1.4s-0.7-0.5-1.3-0.5c-0.5,0-0.9,0.2-1.3,0.5c-0.3,0.3-0.5,0.8-0.5,1.4v1.2c0,0.6,0.2,1.1,0.5,1.4
			C-1403.9,2679.6-1403.5,2679.7-1403,2679.7z"/>
		<path class="st11" d="M-1397.9,2680.8v-7.3h1.5v1.4h0.1c0.1-0.4,0.3-0.7,0.6-1c0.3-0.3,0.8-0.4,1.4-0.4h0.4v1.5h-0.6
			c-0.6,0-1.1,0.1-1.4,0.3c-0.3,0.2-0.5,0.5-0.5,0.9v4.6H-1397.9z"/>
		<path class="st11" d="M-1392.6,2680.8v-7.3h1.5v1.2h0.1c0.1-0.2,0.2-0.4,0.3-0.5s0.2-0.3,0.4-0.4c0.2-0.1,0.3-0.2,0.5-0.3
			c0.2-0.1,0.5-0.1,0.7-0.1c0.5,0,0.9,0.1,1.3,0.4c0.4,0.2,0.7,0.6,0.8,1.1h0c0.1-0.4,0.4-0.8,0.8-1s0.9-0.4,1.4-0.4
			c0.7,0,1.3,0.2,1.7,0.7s0.6,1.2,0.6,2.1v4.6h-1.5v-4.4c0-0.6-0.1-1-0.3-1.3c-0.2-0.3-0.6-0.4-1-0.4c-0.2,0-0.4,0-0.6,0.1
			c-0.2,0.1-0.3,0.1-0.5,0.2c-0.1,0.1-0.2,0.2-0.3,0.4c-0.1,0.2-0.1,0.3-0.1,0.5v4.9h-1.5v-4.4c0-1.1-0.4-1.7-1.3-1.7
			c-0.2,0-0.4,0-0.6,0.1c-0.2,0.1-0.3,0.1-0.5,0.2c-0.1,0.1-0.3,0.2-0.3,0.4c-0.1,0.2-0.1,0.3-0.1,0.5v4.9H-1392.6z"/>
	</g>
	<g>
		<g>
			<path class="st1" d="M-1358.7,2664h87.5c1.7,0,3,1.4,3,3v18.1c0,1.7-1.4,3-3,3h-87.5c-1.7,0-3-1.4-3-3v-18.1
				C-1361.7,2665.4-1360.4,2664-1358.7,2664z"/>
			<g>
				<path class="st2" d="M-1336.7,2679.9l-2.4-7.4h1.6l1.1,3.5l0.6,2.3h0l0.6-2.3l1.1-3.5h1.6l-2.4,7.4H-1336.7z"/>
				<path class="st2" d="M-1330.8,2673.8c-0.3,0-0.5-0.1-0.7-0.2c-0.1-0.1-0.2-0.3-0.2-0.6v-0.2c0-0.2,0.1-0.4,0.2-0.6
					s0.4-0.2,0.7-0.2c0.3,0,0.5,0.1,0.7,0.2s0.2,0.3,0.2,0.6v0.2c0,0.2-0.1,0.4-0.2,0.6C-1330.3,2673.7-1330.5,2673.8-1330.8,2673.8
					z M-1331.6,2674.3h1.6v5.5h-1.6V2674.3z"/>
				<path class="st2" d="M-1326.7,2680c-0.5,0-1-0.1-1.4-0.3c-0.4-0.2-0.7-0.4-1-0.7l0.9-0.9c0.2,0.2,0.4,0.4,0.7,0.5
					c0.2,0.1,0.5,0.2,0.8,0.2c0.3,0,0.5,0,0.6-0.1c0.1-0.1,0.2-0.2,0.2-0.4c0-0.3-0.2-0.4-0.6-0.5l-0.6-0.1
					c-1.2-0.2-1.9-0.7-1.9-1.7c0-0.3,0.1-0.5,0.2-0.7c0.1-0.2,0.2-0.4,0.4-0.6c0.2-0.2,0.4-0.3,0.7-0.4c0.3-0.1,0.6-0.1,0.9-0.1
					c0.3,0,0.5,0,0.8,0.1c0.2,0,0.4,0.1,0.6,0.2c0.2,0.1,0.3,0.2,0.5,0.3s0.3,0.2,0.4,0.4l-0.9,0.9c-0.2-0.2-0.4-0.3-0.6-0.4
					c-0.2-0.1-0.4-0.2-0.7-0.2c-0.3,0-0.5,0-0.6,0.1c-0.1,0.1-0.2,0.2-0.2,0.3c0,0.1,0,0.3,0.1,0.3s0.2,0.1,0.5,0.2l0.6,0.1
					c1.2,0.2,1.8,0.7,1.8,1.7c0,0.3-0.1,0.5-0.2,0.7s-0.3,0.4-0.5,0.6c-0.2,0.2-0.5,0.3-0.8,0.4C-1326,2680-1326.4,2680-1326.7,2680
					z"/>
				<path class="st2" d="M-1322.5,2673.8c-0.3,0-0.5-0.1-0.7-0.2c-0.1-0.1-0.2-0.3-0.2-0.6v-0.2c0-0.2,0.1-0.4,0.2-0.6
					s0.4-0.2,0.7-0.2c0.3,0,0.5,0.1,0.7,0.2s0.2,0.3,0.2,0.6v0.2c0,0.2-0.1,0.4-0.2,0.6C-1322,2673.7-1322.2,2673.8-1322.5,2673.8z
					 M-1323.3,2674.3h1.6v5.5h-1.6V2674.3z"/>
				<path class="st2" d="M-1318.3,2679.9c-0.5,0-1-0.1-1.2-0.4s-0.4-0.7-0.4-1.2v-2.7h-0.8v-1.2h0.4c0.2,0,0.4-0.1,0.4-0.2
					c0.1-0.1,0.1-0.2,0.1-0.4v-0.9h1.4v1.5h1.1v1.2h-1.1v3.1h1v1.2H-1318.3z"/>
				<path class="st2" d="M-1313.6,2672.5h2.8c0.5,0,0.9,0.1,1.3,0.2c0.4,0.2,0.7,0.4,1,0.7c0.3,0.3,0.5,0.7,0.7,1.2
					c0.2,0.5,0.2,1,0.2,1.6c0,0.6-0.1,1.2-0.2,1.6c-0.2,0.5-0.4,0.8-0.7,1.2c-0.3,0.3-0.6,0.5-1,0.7c-0.4,0.2-0.8,0.2-1.3,0.2h-2.8
					V2672.5z M-1310.9,2678.5c0.5,0,0.9-0.1,1.1-0.4c0.3-0.3,0.4-0.7,0.4-1.3v-1.1c0-0.6-0.1-1-0.4-1.3c-0.3-0.3-0.7-0.4-1.1-0.4
					h-1.2v4.5H-1310.9z"/>
				<path class="st2" d="M-1306.4,2672.1h1.6v3.2h0.1c0.1-0.3,0.3-0.6,0.5-0.8s0.6-0.3,1-0.3c0.7,0,1.2,0.2,1.6,0.7
					c0.4,0.5,0.5,1.2,0.5,2.2c0,0.9-0.2,1.7-0.5,2.2c-0.4,0.5-0.9,0.7-1.6,0.7c-0.2,0-0.4,0-0.5-0.1s-0.3-0.1-0.4-0.2
					c-0.1-0.1-0.2-0.2-0.3-0.3c-0.1-0.1-0.2-0.3-0.2-0.4h-0.1v0.9h-1.6V2672.1z M-1303.8,2678.8c0.3,0,0.5-0.1,0.7-0.3
					c0.2-0.2,0.3-0.5,0.3-0.8v-1c0-0.4-0.1-0.6-0.3-0.8c-0.2-0.2-0.4-0.3-0.7-0.3s-0.5,0.1-0.7,0.2c-0.2,0.1-0.3,0.3-0.3,0.6v1.6
					c0,0.3,0.1,0.5,0.3,0.6C-1304.3,2678.7-1304.1,2678.8-1303.8,2678.8z"/>
				<path class="st2" d="M-1297.7,2680c-0.4,0-0.8-0.1-1.1-0.2c-0.3-0.1-0.6-0.3-0.8-0.6c-0.2-0.3-0.4-0.6-0.5-0.9
					c-0.1-0.4-0.2-0.8-0.2-1.2c0-0.4,0.1-0.8,0.2-1.2c0.1-0.4,0.3-0.7,0.5-0.9s0.5-0.4,0.8-0.6c0.3-0.1,0.7-0.2,1.1-0.2
					s0.8,0.1,1.1,0.2c0.3,0.1,0.6,0.3,0.8,0.6s0.4,0.6,0.5,0.9c0.1,0.4,0.2,0.8,0.2,1.2c0,0.4-0.1,0.8-0.2,1.2
					c-0.1,0.4-0.3,0.7-0.5,0.9c-0.2,0.3-0.5,0.4-0.8,0.6S-1297.3,2680-1297.7,2680z M-1297.7,2678.8c0.3,0,0.5-0.1,0.7-0.3
					c0.2-0.2,0.3-0.5,0.3-0.8v-1.1c0-0.4-0.1-0.6-0.3-0.8c-0.2-0.2-0.4-0.3-0.7-0.3s-0.5,0.1-0.7,0.3c-0.2,0.2-0.3,0.5-0.3,0.8v1.1
					c0,0.4,0.1,0.6,0.3,0.8C-1298.2,2678.7-1298,2678.8-1297.7,2678.8z"/>
				<path class="st2" d="M-1292,2679.9c-0.5,0-1-0.1-1.2-0.4s-0.4-0.7-0.4-1.2v-2.7h-0.8v-1.2h0.4c0.2,0,0.4-0.1,0.4-0.2
					c0.1-0.1,0.1-0.2,0.1-0.4v-0.9h1.4v1.5h1.1v1.2h-1.1v3.1h1v1.2H-1292z"/>
			</g>
		</g>
	</g>
	<rect x="-3634.9" y="2387.6" class="st2" width="75" height="75"/>
	<g>
		<path class="st2" d="M-3376.1,2680.8v-9.8h6.3v1.4h-4.7v2.7h4.2v1.4h-4.2v2.9h4.7v1.4H-3376.1z"/>
		<path class="st2" d="M-3368.8,2680.8l2.6-3.7l-2.5-3.6h1.8l1.6,2.5h0l1.7-2.5h1.6l-2.5,3.6l2.5,3.7h-1.8l-1.7-2.6h0l-1.8,2.6
			H-3368.8z"/>
		<path class="st2" d="M-3360.5,2673.6h1.5v1.2h0.1c0.2-0.4,0.4-0.8,0.8-1s0.8-0.4,1.3-0.4c0.9,0,1.6,0.3,2.1,1
			c0.5,0.7,0.8,1.6,0.8,2.8s-0.3,2.1-0.8,2.8s-1.2,1-2.1,1c-0.5,0-0.9-0.1-1.3-0.4c-0.4-0.2-0.6-0.6-0.8-1h-0.1v4h-1.5V2673.6z
			 M-3357.4,2679.7c0.5,0,1-0.2,1.3-0.5s0.5-0.8,0.5-1.4v-1.3c0-0.6-0.2-1-0.5-1.4s-0.7-0.5-1.3-0.5c-0.5,0-0.9,0.1-1.2,0.3
			c-0.3,0.2-0.5,0.5-0.5,0.9v2.5c0,0.4,0.2,0.7,0.5,0.9C-3358.2,2679.6-3357.8,2679.7-3357.4,2679.7z"/>
		<path class="st2" d="M-3349.4,2681c-0.5,0-1-0.1-1.4-0.3c-0.4-0.2-0.8-0.4-1-0.8c-0.3-0.3-0.5-0.7-0.7-1.2c-0.2-0.5-0.2-1-0.2-1.6
			c0-0.6,0.1-1.1,0.2-1.6s0.4-0.9,0.7-1.2c0.3-0.3,0.6-0.6,1-0.8c0.4-0.2,0.9-0.3,1.4-0.3c0.5,0,1,0.1,1.4,0.3
			c0.4,0.2,0.7,0.4,1,0.8c0.3,0.3,0.5,0.7,0.6,1.2c0.1,0.4,0.2,0.9,0.2,1.4v0.6h-5v0.2c0,0.6,0.2,1,0.5,1.4c0.3,0.4,0.8,0.5,1.4,0.5
			c0.4,0,0.8-0.1,1.1-0.3c0.3-0.2,0.6-0.5,0.8-0.8l0.9,0.9c-0.3,0.4-0.7,0.8-1.2,1.1C-3348.1,2680.9-3348.7,2681-3349.4,2681z
			 M-3349.4,2674.6c-0.3,0-0.5,0-0.7,0.1c-0.2,0.1-0.4,0.2-0.6,0.4s-0.3,0.4-0.4,0.6s-0.1,0.5-0.1,0.8v0.1h3.4v-0.1
			c0-0.6-0.1-1-0.4-1.4C-3348.5,2674.8-3348.9,2674.6-3349.4,2674.6z"/>
		<path class="st2" d="M-3344.5,2680.8v-7.3h1.5v1.4h0.1c0.1-0.4,0.3-0.7,0.6-1c0.3-0.3,0.8-0.4,1.4-0.4h0.4v1.5h-0.6
			c-0.6,0-1.1,0.1-1.4,0.3c-0.3,0.2-0.5,0.5-0.5,0.9v4.6H-3344.5z"/>
		<path class="st2" d="M-3338.3,2672.3c-0.3,0-0.5-0.1-0.7-0.2s-0.2-0.3-0.2-0.6v-0.2c0-0.2,0.1-0.4,0.2-0.6
			c0.1-0.1,0.4-0.2,0.7-0.2s0.5,0.1,0.7,0.2c0.1,0.1,0.2,0.3,0.2,0.6v0.2c0,0.2-0.1,0.4-0.2,0.6
			C-3337.8,2672.2-3338,2672.3-3338.3,2672.3z M-3339.1,2673.6h1.5v7.3h-1.5V2673.6z"/>
		<path class="st2" d="M-3332.5,2681c-0.5,0-1-0.1-1.4-0.3c-0.4-0.2-0.8-0.4-1-0.8c-0.3-0.3-0.5-0.7-0.7-1.2c-0.2-0.5-0.2-1-0.2-1.6
			c0-0.6,0.1-1.1,0.2-1.6s0.4-0.9,0.7-1.2c0.3-0.3,0.6-0.6,1-0.8c0.4-0.2,0.9-0.3,1.4-0.3c0.5,0,1,0.1,1.4,0.3
			c0.4,0.2,0.7,0.4,1,0.8c0.3,0.3,0.5,0.7,0.6,1.2c0.1,0.4,0.2,0.9,0.2,1.4v0.6h-5v0.2c0,0.6,0.2,1,0.5,1.4c0.3,0.4,0.8,0.5,1.4,0.5
			c0.4,0,0.8-0.1,1.1-0.3c0.3-0.2,0.6-0.5,0.8-0.8l0.9,0.9c-0.3,0.4-0.7,0.8-1.2,1.1C-3331.3,2680.9-3331.9,2681-3332.5,2681z
			 M-3332.5,2674.6c-0.3,0-0.5,0-0.7,0.1c-0.2,0.1-0.4,0.2-0.6,0.4s-0.3,0.4-0.4,0.6s-0.1,0.5-0.1,0.8v0.1h3.4v-0.1
			c0-0.6-0.1-1-0.4-1.4C-3331.6,2674.8-3332,2674.6-3332.5,2674.6z"/>
		<path class="st2" d="M-3327.6,2680.8v-7.3h1.5v1.2h0.1c0.2-0.4,0.4-0.7,0.7-1c0.3-0.3,0.8-0.4,1.3-0.4c0.7,0,1.3,0.2,1.7,0.7
			c0.4,0.5,0.6,1.2,0.6,2.1v4.6h-1.5v-4.4c0-1.1-0.5-1.7-1.4-1.7c-0.2,0-0.4,0-0.6,0.1c-0.2,0.1-0.4,0.1-0.5,0.2
			c-0.1,0.1-0.3,0.2-0.4,0.4c-0.1,0.2-0.1,0.3-0.1,0.6v4.9H-3327.6z"/>
		<path class="st2" d="M-3316.7,2681c-0.5,0-1-0.1-1.4-0.3c-0.4-0.2-0.8-0.4-1-0.8c-0.3-0.3-0.5-0.7-0.6-1.2c-0.1-0.5-0.2-1-0.2-1.6
			c0-0.6,0.1-1.1,0.2-1.6c0.1-0.5,0.4-0.9,0.6-1.2c0.3-0.3,0.6-0.6,1-0.8c0.4-0.2,0.9-0.3,1.4-0.3c0.7,0,1.3,0.2,1.8,0.5
			c0.5,0.3,0.8,0.8,1,1.3l-1.3,0.6c-0.1-0.3-0.3-0.6-0.5-0.8c-0.3-0.2-0.6-0.3-1-0.3c-0.6,0-1,0.2-1.3,0.5c-0.3,0.3-0.4,0.8-0.4,1.4
			v1.3c0,0.6,0.1,1,0.4,1.4c0.3,0.3,0.7,0.5,1.3,0.5c0.4,0,0.8-0.1,1.1-0.3c0.3-0.2,0.5-0.5,0.6-0.9l1.2,0.6
			c-0.2,0.6-0.6,1.1-1.1,1.4C-3315.4,2680.8-3316,2681-3316.7,2681z"/>
		<path class="st2" d="M-3309.6,2681c-0.5,0-1-0.1-1.4-0.3c-0.4-0.2-0.8-0.4-1-0.8c-0.3-0.3-0.5-0.7-0.7-1.2c-0.2-0.5-0.2-1-0.2-1.6
			c0-0.6,0.1-1.1,0.2-1.6s0.4-0.9,0.7-1.2s0.6-0.6,1-0.8c0.4-0.2,0.9-0.3,1.4-0.3c0.5,0,1,0.1,1.4,0.3c0.4,0.2,0.7,0.4,1,0.8
			c0.3,0.3,0.5,0.7,0.6,1.2c0.1,0.4,0.2,0.9,0.2,1.4v0.6h-5v0.2c0,0.6,0.2,1,0.5,1.4c0.3,0.4,0.8,0.5,1.4,0.5c0.4,0,0.8-0.1,1.1-0.3
			c0.3-0.2,0.6-0.5,0.8-0.8l0.9,0.9c-0.3,0.4-0.7,0.8-1.2,1.1C-3308.3,2680.9-3308.9,2681-3309.6,2681z M-3309.6,2674.6
			c-0.3,0-0.5,0-0.7,0.1c-0.2,0.1-0.4,0.2-0.6,0.4s-0.3,0.4-0.4,0.6s-0.1,0.5-0.1,0.8v0.1h3.4v-0.1c0-0.6-0.1-1-0.4-1.4
			S-3309.1,2674.6-3309.6,2674.6z"/>
		<path class="st2" d="M-3298.5,2681c-0.5,0-1-0.1-1.4-0.3c-0.4-0.2-0.8-0.4-1.1-0.8c-0.3-0.3-0.5-0.7-0.7-1.2
			c-0.2-0.5-0.2-1-0.2-1.6c0-0.6,0.1-1.1,0.2-1.6c0.2-0.5,0.4-0.9,0.7-1.2s0.6-0.6,1.1-0.8c0.4-0.2,0.9-0.3,1.4-0.3s1,0.1,1.4,0.3
			c0.4,0.2,0.8,0.4,1.1,0.8s0.5,0.7,0.7,1.2c0.2,0.5,0.2,1,0.2,1.6c0,0.6-0.1,1.1-0.2,1.6c-0.2,0.5-0.4,0.9-0.7,1.2
			c-0.3,0.3-0.6,0.6-1.1,0.8C-3297.5,2680.9-3298,2681-3298.5,2681z M-3298.5,2679.7c0.5,0,0.9-0.2,1.3-0.5c0.3-0.3,0.5-0.8,0.5-1.4
			v-1.2c0-0.6-0.2-1.1-0.5-1.4s-0.7-0.5-1.3-0.5c-0.5,0-0.9,0.2-1.3,0.5c-0.3,0.3-0.5,0.8-0.5,1.4v1.2c0,0.6,0.2,1.1,0.5,1.4
			C-3299.4,2679.6-3299,2679.7-3298.5,2679.7z"/>
		<path class="st2" d="M-3289,2679.6L-3289,2679.6c-0.1,0.2-0.2,0.4-0.3,0.5c-0.1,0.2-0.2,0.3-0.4,0.4c-0.2,0.1-0.4,0.2-0.6,0.3
			c-0.2,0.1-0.5,0.1-0.8,0.1c-0.8,0-1.3-0.2-1.8-0.7c-0.4-0.5-0.6-1.2-0.6-2.1v-4.6h1.5v4.4c0,1.1,0.5,1.7,1.4,1.7
			c0.2,0,0.4,0,0.6-0.1c0.2-0.1,0.4-0.1,0.5-0.2c0.1-0.1,0.3-0.2,0.4-0.4c0.1-0.2,0.1-0.3,0.1-0.6v-4.9h1.5v7.3h-1.5V2679.6z"/>
		<path class="st2" d="M-3285.3,2680.8v-7.3h1.5v1.4h0.1c0.1-0.4,0.3-0.7,0.6-1c0.3-0.3,0.8-0.4,1.4-0.4h0.4v1.5h-0.6
			c-0.6,0-1.1,0.1-1.4,0.3c-0.3,0.2-0.5,0.5-0.5,0.9v4.6H-3285.3z"/>
		<path class="st2" d="M-3276.7,2680.8v-7.3h1.5v1.2h0.1c0.2-0.4,0.4-0.7,0.7-1c0.3-0.3,0.8-0.4,1.3-0.4c0.7,0,1.3,0.2,1.7,0.7
			c0.4,0.5,0.6,1.2,0.6,2.1v4.6h-1.5v-4.4c0-1.1-0.5-1.7-1.4-1.7c-0.2,0-0.4,0-0.6,0.1c-0.2,0.1-0.4,0.1-0.5,0.2
			c-0.1,0.1-0.3,0.2-0.4,0.4c-0.1,0.2-0.1,0.3-0.1,0.6v4.9H-3276.7z"/>
		<path class="st2" d="M-3265.7,2681c-0.5,0-1-0.1-1.4-0.3c-0.4-0.2-0.8-0.4-1-0.8c-0.3-0.3-0.5-0.7-0.7-1.2c-0.2-0.5-0.2-1-0.2-1.6
			c0-0.6,0.1-1.1,0.2-1.6s0.4-0.9,0.7-1.2s0.6-0.6,1-0.8c0.4-0.2,0.9-0.3,1.4-0.3c0.5,0,1,0.1,1.4,0.3c0.4,0.2,0.7,0.4,1,0.8
			c0.3,0.3,0.5,0.7,0.6,1.2c0.1,0.4,0.2,0.9,0.2,1.4v0.6h-5v0.2c0,0.6,0.2,1,0.5,1.4c0.3,0.4,0.8,0.5,1.4,0.5c0.4,0,0.8-0.1,1.1-0.3
			c0.3-0.2,0.6-0.5,0.8-0.8l0.9,0.9c-0.3,0.4-0.7,0.8-1.2,1.1C-3264.4,2680.9-3265,2681-3265.7,2681z M-3265.7,2674.6
			c-0.3,0-0.5,0-0.7,0.1c-0.2,0.1-0.4,0.2-0.6,0.4s-0.3,0.4-0.4,0.6s-0.1,0.5-0.1,0.8v0.1h3.4v-0.1c0-0.6-0.1-1-0.4-1.4
			S-3265.2,2674.6-3265.7,2674.6z"/>
		<path class="st2" d="M-3261.6,2673.6h1.5l0.7,3.1l0.7,2.8h0l0.8-2.8l0.9-3.1h1.4l0.9,3.1l0.8,2.8h0l0.6-2.8l0.8-3.1h1.4l-2,7.3
			h-1.7l-1-3.3l-0.6-2h0l-0.6,2l-1,3.3h-1.7L-3261.6,2673.6z"/>
		<path class="st2" d="M-3246.3,2673.6h1.5v1.2h0.1c0.2-0.4,0.4-0.8,0.8-1s0.8-0.4,1.3-0.4c0.9,0,1.6,0.3,2.1,1
			c0.5,0.7,0.8,1.6,0.8,2.8s-0.3,2.1-0.8,2.8s-1.2,1-2.1,1c-0.5,0-0.9-0.1-1.3-0.4c-0.4-0.2-0.6-0.6-0.8-1h-0.1v4h-1.5V2673.6z
			 M-3243.2,2679.7c0.5,0,1-0.2,1.3-0.5s0.5-0.8,0.5-1.4v-1.3c0-0.6-0.2-1-0.5-1.4s-0.7-0.5-1.3-0.5c-0.5,0-0.9,0.1-1.2,0.3
			s-0.5,0.5-0.5,0.9v2.5c0,0.4,0.2,0.7,0.5,0.9C-3244,2679.6-3243.6,2679.7-3243.2,2679.7z"/>
		<path class="st2" d="M-3236.5,2680.8c-0.5,0-0.9-0.1-1.2-0.4c-0.3-0.3-0.4-0.6-0.4-1.1v-8.8h1.5v9.1h1v1.2H-3236.5z"/>
		<path class="st2" d="M-3228.7,2680.8c-0.4,0-0.7-0.1-0.9-0.3s-0.3-0.5-0.4-0.9h-0.1c-0.1,0.5-0.4,0.8-0.8,1
			c-0.4,0.2-0.8,0.3-1.4,0.3c-0.8,0-1.3-0.2-1.7-0.6s-0.6-0.9-0.6-1.6c0-0.7,0.3-1.3,0.8-1.6c0.5-0.4,1.3-0.5,2.3-0.5h1.3v-0.6
			c0-0.4-0.1-0.8-0.4-1c-0.2-0.2-0.6-0.4-1.1-0.4c-0.4,0-0.8,0.1-1.1,0.3c-0.3,0.2-0.5,0.4-0.7,0.7l-0.9-0.8c0.2-0.4,0.6-0.7,1-1
			c0.4-0.3,1-0.4,1.7-0.4c0.9,0,1.7,0.2,2.2,0.7s0.8,1.1,0.8,1.9v3.7h0.8v1.2H-3228.7z M-3231.8,2679.8c0.5,0,0.9-0.1,1.2-0.3
			c0.3-0.2,0.5-0.5,0.5-0.8v-1h-1.3c-1.1,0-1.6,0.3-1.6,1v0.3c0,0.3,0.1,0.6,0.3,0.7C-3232.5,2679.8-3232.2,2679.8-3231.8,2679.8z"
			/>
		<path class="st2" d="M-3224.4,2680.8c-0.5,0-0.9-0.1-1.2-0.4c-0.3-0.3-0.4-0.7-0.4-1.2v-4.5h-1.1v-1.2h0.6c0.3,0,0.4-0.1,0.5-0.2
			c0.1-0.1,0.1-0.3,0.1-0.5v-1.3h1.4v2h1.5v1.2h-1.5v4.8h1.4v1.2H-3224.4z"/>
		<path class="st2" d="M-3221,2674.8h-1.1v-1.2h1.1v-1.2c0-0.6,0.2-1,0.5-1.4c0.3-0.3,0.8-0.5,1.4-0.5h1.2v1.2h-1.5v1.8h1.5v1.2
			h-1.5v6h-1.5V2674.8z"/>
		<path class="st2" d="M-3213.8,2681c-0.5,0-1-0.1-1.4-0.3c-0.4-0.2-0.8-0.4-1.1-0.8c-0.3-0.3-0.5-0.7-0.7-1.2
			c-0.2-0.5-0.2-1-0.2-1.6c0-0.6,0.1-1.1,0.2-1.6c0.2-0.5,0.4-0.9,0.7-1.2s0.6-0.6,1.1-0.8c0.4-0.2,0.9-0.3,1.4-0.3s1,0.1,1.4,0.3
			c0.4,0.2,0.8,0.4,1.1,0.8s0.5,0.7,0.7,1.2c0.2,0.5,0.2,1,0.2,1.6c0,0.6-0.1,1.1-0.2,1.6c-0.2,0.5-0.4,0.9-0.7,1.2
			c-0.3,0.3-0.6,0.6-1.1,0.8C-3212.9,2680.9-3213.3,2681-3213.8,2681z M-3213.8,2679.7c0.5,0,0.9-0.2,1.3-0.5
			c0.3-0.3,0.5-0.8,0.5-1.4v-1.2c0-0.6-0.2-1.1-0.5-1.4s-0.7-0.5-1.3-0.5c-0.5,0-0.9,0.2-1.3,0.5c-0.3,0.3-0.5,0.8-0.5,1.4v1.2
			c0,0.6,0.2,1.1,0.5,1.4C-3214.8,2679.6-3214.4,2679.7-3213.8,2679.7z"/>
		<path class="st2" d="M-3208.8,2680.8v-7.3h1.5v1.4h0.1c0.1-0.4,0.3-0.7,0.6-1c0.3-0.3,0.8-0.4,1.4-0.4h0.4v1.5h-0.6
			c-0.6,0-1.1,0.1-1.4,0.3c-0.3,0.2-0.5,0.5-0.5,0.9v4.6H-3208.8z"/>
		<path class="st2" d="M-3203.4,2680.8v-7.3h1.5v1.2h0.1c0.1-0.2,0.2-0.4,0.3-0.5s0.2-0.3,0.4-0.4c0.2-0.1,0.3-0.2,0.5-0.3
			c0.2-0.1,0.5-0.1,0.7-0.1c0.5,0,0.9,0.1,1.3,0.4c0.4,0.2,0.7,0.6,0.8,1.1h0c0.1-0.4,0.4-0.8,0.8-1s0.9-0.4,1.4-0.4
			c0.7,0,1.3,0.2,1.7,0.7s0.6,1.2,0.6,2.1v4.6h-1.5v-4.4c0-0.6-0.1-1-0.3-1.3c-0.2-0.3-0.6-0.4-1-0.4c-0.2,0-0.4,0-0.6,0.1
			c-0.2,0.1-0.3,0.1-0.5,0.2c-0.1,0.1-0.2,0.2-0.3,0.4c-0.1,0.2-0.1,0.3-0.1,0.5v4.9h-1.5v-4.4c0-1.1-0.4-1.7-1.3-1.7
			c-0.2,0-0.4,0-0.6,0.1c-0.2,0.1-0.3,0.1-0.5,0.2c-0.1,0.1-0.3,0.2-0.3,0.4c-0.1,0.2-0.1,0.3-0.1,0.5v4.9H-3203.4z"/>
	</g>
	<g>
		<g>
			<path class="st1" d="M-3169.6,2664h87.5c1.7,0,3,1.4,3,3v18.1c0,1.7-1.4,3-3,3h-87.5c-1.7,0-3-1.4-3-3v-18.1
				C-3172.6,2665.4-3171.3,2664-3169.6,2664z"/>
			<g>
				<path class="st2" d="M-3147.6,2679.9l-2.4-7.4h1.6l1.1,3.5l0.6,2.3h0l0.6-2.3l1.1-3.5h1.6l-2.4,7.4H-3147.6z"/>
				<path class="st2" d="M-3141.7,2673.8c-0.3,0-0.5-0.1-0.7-0.2c-0.1-0.1-0.2-0.3-0.2-0.6v-0.2c0-0.2,0.1-0.4,0.2-0.6
					s0.4-0.2,0.7-0.2c0.3,0,0.5,0.1,0.7,0.2s0.2,0.3,0.2,0.6v0.2c0,0.2-0.1,0.4-0.2,0.6C-3141.2,2673.7-3141.4,2673.8-3141.7,2673.8
					z M-3142.5,2674.3h1.6v5.5h-1.6V2674.3z"/>
				<path class="st2" d="M-3137.6,2680c-0.5,0-1-0.1-1.4-0.3c-0.4-0.2-0.7-0.4-1-0.7l0.9-0.9c0.2,0.2,0.4,0.4,0.7,0.5
					c0.2,0.1,0.5,0.2,0.8,0.2c0.3,0,0.5,0,0.6-0.1c0.1-0.1,0.2-0.2,0.2-0.4c0-0.3-0.2-0.4-0.6-0.5l-0.6-0.1
					c-1.2-0.2-1.9-0.7-1.9-1.7c0-0.3,0.1-0.5,0.2-0.7c0.1-0.2,0.2-0.4,0.4-0.6c0.2-0.2,0.4-0.3,0.7-0.4c0.3-0.1,0.6-0.1,0.9-0.1
					c0.3,0,0.5,0,0.8,0.1c0.2,0,0.4,0.1,0.6,0.2c0.2,0.1,0.3,0.2,0.5,0.3s0.3,0.2,0.4,0.4l-0.9,0.9c-0.2-0.2-0.4-0.3-0.6-0.4
					c-0.2-0.1-0.4-0.2-0.7-0.2c-0.3,0-0.5,0-0.6,0.1c-0.1,0.1-0.2,0.2-0.2,0.3c0,0.1,0,0.3,0.1,0.3s0.2,0.1,0.5,0.2l0.6,0.1
					c1.2,0.2,1.8,0.7,1.8,1.7c0,0.3-0.1,0.5-0.2,0.7s-0.3,0.4-0.5,0.6c-0.2,0.2-0.5,0.3-0.8,0.4
					C-3136.9,2680-3137.3,2680-3137.6,2680z"/>
				<path class="st2" d="M-3133.4,2673.8c-0.3,0-0.5-0.1-0.7-0.2c-0.1-0.1-0.2-0.3-0.2-0.6v-0.2c0-0.2,0.1-0.4,0.2-0.6
					s0.4-0.2,0.7-0.2c0.3,0,0.5,0.1,0.7,0.2s0.2,0.3,0.2,0.6v0.2c0,0.2-0.1,0.4-0.2,0.6C-3132.8,2673.7-3133.1,2673.8-3133.4,2673.8
					z M-3134.2,2674.3h1.6v5.5h-1.6V2674.3z"/>
				<path class="st2" d="M-3129.2,2679.9c-0.5,0-1-0.1-1.2-0.4s-0.4-0.7-0.4-1.2v-2.7h-0.8v-1.2h0.4c0.2,0,0.4-0.1,0.4-0.2
					c0.1-0.1,0.1-0.2,0.1-0.4v-0.9h1.4v1.5h1.1v1.2h-1.1v3.1h1v1.2H-3129.2z"/>
				<path class="st2" d="M-3124.5,2672.5h2.8c0.5,0,0.9,0.1,1.3,0.2c0.4,0.2,0.7,0.4,1,0.7c0.3,0.3,0.5,0.7,0.7,1.2
					c0.2,0.5,0.2,1,0.2,1.6c0,0.6-0.1,1.2-0.2,1.6c-0.2,0.5-0.4,0.8-0.7,1.2c-0.3,0.3-0.6,0.5-1,0.7c-0.4,0.2-0.8,0.2-1.3,0.2h-2.8
					V2672.5z M-3121.7,2678.5c0.5,0,0.9-0.1,1.1-0.4c0.3-0.3,0.4-0.7,0.4-1.3v-1.1c0-0.6-0.1-1-0.4-1.3c-0.3-0.3-0.7-0.4-1.1-0.4
					h-1.2v4.5H-3121.7z"/>
				<path class="st2" d="M-3117.2,2672.1h1.6v3.2h0.1c0.1-0.3,0.3-0.6,0.5-0.8s0.6-0.3,1-0.3c0.7,0,1.2,0.2,1.6,0.7
					c0.4,0.5,0.5,1.2,0.5,2.2c0,0.9-0.2,1.7-0.5,2.2c-0.4,0.5-0.9,0.7-1.6,0.7c-0.2,0-0.4,0-0.5-0.1s-0.3-0.1-0.4-0.2
					c-0.1-0.1-0.2-0.2-0.3-0.3c-0.1-0.1-0.2-0.3-0.2-0.4h-0.1v0.9h-1.6V2672.1z M-3114.7,2678.8c0.3,0,0.5-0.1,0.7-0.3
					c0.2-0.2,0.3-0.5,0.3-0.8v-1c0-0.4-0.1-0.6-0.3-0.8c-0.2-0.2-0.4-0.3-0.7-0.3s-0.5,0.1-0.7,0.2c-0.2,0.1-0.3,0.3-0.3,0.6v1.6
					c0,0.3,0.1,0.5,0.3,0.6C-3115.2,2678.7-3115,2678.8-3114.7,2678.8z"/>
				<path class="st2" d="M-3108.6,2680c-0.4,0-0.8-0.1-1.1-0.2c-0.3-0.1-0.6-0.3-0.8-0.6c-0.2-0.3-0.4-0.6-0.5-0.9
					c-0.1-0.4-0.2-0.8-0.2-1.2c0-0.4,0.1-0.8,0.2-1.2c0.1-0.4,0.3-0.7,0.5-0.9s0.5-0.4,0.8-0.6c0.3-0.1,0.7-0.2,1.1-0.2
					s0.8,0.1,1.1,0.2c0.3,0.1,0.6,0.3,0.8,0.6s0.4,0.6,0.5,0.9c0.1,0.4,0.2,0.8,0.2,1.2c0,0.4-0.1,0.8-0.2,1.2
					c-0.1,0.4-0.3,0.7-0.5,0.9c-0.2,0.3-0.5,0.4-0.8,0.6S-3108.2,2680-3108.6,2680z M-3108.6,2678.8c0.3,0,0.5-0.1,0.7-0.3
					c0.2-0.2,0.3-0.5,0.3-0.8v-1.1c0-0.4-0.1-0.6-0.3-0.8c-0.2-0.2-0.4-0.3-0.7-0.3s-0.5,0.1-0.7,0.3c-0.2,0.2-0.3,0.5-0.3,0.8v1.1
					c0,0.4,0.1,0.6,0.3,0.8C-3109.1,2678.7-3108.9,2678.8-3108.6,2678.8z"/>
				<path class="st2" d="M-3102.9,2679.9c-0.5,0-1-0.1-1.2-0.4s-0.4-0.7-0.4-1.2v-2.7h-0.8v-1.2h0.4c0.2,0,0.4-0.1,0.4-0.2
					c0.1-0.1,0.1-0.2,0.1-0.4v-0.9h1.4v1.5h1.1v1.2h-1.1v3.1h1v1.2H-3102.9z"/>
			</g>
		</g>
	</g>
	<rect x="-3393.7" y="2430.6" class="st2" width="32" height="32"/>
	<rect x="-3078.9" y="2442.6" class="st2" width="16" height="16"/>
	<g>
		<path class="st2" d="M219.7,44.5l-182.2,0c-0.5,0-1,0.2-1.4,0.5l-6.5,5.6c-0.4,0.3-0.9,0.5-1.4,0.5h-9.5c-0.5,0-1-0.2-1.4-0.5
			l-6.5-5.6c-0.4-0.3-0.9-0.5-1.4-0.5l-4.7,0c-2.5,0-4.5-2-4.5-4.5V4.5C0,2,2,0,4.5,0l4.7,0c0.5,0,1,0.2,1.4,0.5l6.5,5.6
			c0.4,0.3,0.9,0.5,1.4,0.5h9.5c0.5,0,1-0.2,1.4-0.5l6.5-5.6C36.5,0.2,37,0,37.6,0l184,0l4.8,0l0,8.2c0,0.5-0.2,1-0.5,1.4l-5.6,6.5
			c-0.3,0.4-0.5,0.9-0.5,1.4v9.5c0,0.5,0.2,1,0.5,1.4l5.6,6.5c0.3,0.4,0.5,0.9,0.5,1.4l0,8L219.7,44.5z"/>
	</g>
	<g id="logo_x2F_platforms_x2F_DBot_4_" transform="translate(16.000000, 8.000000)">
		<g id="_x33_-icons_x2F_2-binarybot_4_">
			<g id="ic_platform-binarybot_4_">
				<path id="Rectangle_8_" class="st3" d="M1.6,4.2H18c2.7,0,4.9,2.2,4.9,4.9v16.4c0,2.7-2.2,4.9-4.9,4.9H1.6
					c-2.7,0-4.9-2.2-4.9-4.9V9.1C-3.3,6.4-1.1,4.2,1.6,4.2z"/>
				<path id="Path_16_" class="st4" d="M7.9,15.1c0.4,0,0.7-0.3,0.7-0.7s-0.3-0.7-0.7-0.7c-0.4,0-0.7,0.3-0.7,0.7
					c0,0.2,0.1,0.4,0.2,0.5C7.6,15,7.7,15.1,7.9,15.1L7.9,15.1z"/>
				<path id="Path_15_" class="st2" d="M17.4,16.8v-3.8c0-2.2-1.8-4-4-4h-3.2v7.7H17.4z"/>
				<path id="Path_14_" class="st2" d="M10.3,25.5h3.2c2.2,0,4-1.8,4-4v-3.8h-7.1V25.5z"/>
				<path id="Path_13_" class="st2" d="M6.3,15.6c-1.2,0-2.2-0.9-2.3-2.2C4,12.2,4.8,11.1,6,11c1.2-0.2,2.3,0.7,2.6,1.9h0.7V9.1H6.2
					c-2.2,0-4,1.8-4,4v8.5c0,2.2,1.8,4,4,4h3.2V13.7H8.6C8.4,14.8,7.5,15.6,6.3,15.6z"/>
				<rect id="Rectangle_7_" x="-3.3" y="4.2" class="st4" width="26.2" height="26.2"/>
			</g>
		</g>
	</g>
	<g id="logo_x2F_platforms_x2F_DBot_1_" transform="translate(16.000000, 8.000000)">
		<g id="_x33_-icons_x2F_2-binarybot_1_">
			<g id="ic_platform-binarybot_1_">
				<path id="Rectangle_2_" class="st3" d="M-67.1,1420.6h27.3c4.5,0,8.2,3.7,8.2,8.2v27.3c0,4.5-3.7,8.2-8.2,8.2h-27.3
					c-4.5,0-8.2-3.7-8.2-8.2v-27.3C-75.2,1424.2-71.6,1420.6-67.1,1420.6z"/>
				<path id="Path_7_" class="st4" d="M-56.5,1438.6c0.6,0,1.2-0.5,1.2-1.2s-0.5-1.2-1.2-1.2s-1.2,0.5-1.2,1.2
					c0,0.3,0.1,0.6,0.3,0.8S-56.8,1438.6-56.5,1438.6L-56.5,1438.6z"/>
				<path id="Path_6_" class="st2" d="M-40.8,1441.6v-6.3c0-3.6-3-6.6-6.6-6.6h-5.3v12.9H-40.8z"/>
				<path id="Path_5_" class="st2" d="M-52.6,1456h5.3c3.6,0,6.6-3,6.6-6.6v-6.3h-11.9V1456z"/>
				<path id="Path_4_" class="st2" d="M-59.2,1439.5c-2,0-3.7-1.6-3.9-3.6c-0.1-2,1.3-3.8,3.4-4.1c2-0.3,3.9,1.1,4.3,3.1h1.2v-6.2
					h-5.3c-3.6,0-6.6,3-6.6,6.6v14.1c0,3.6,3,6.6,6.6,6.6h5.3v-19.6h-1.2C-55.7,1438.2-57.3,1439.5-59.2,1439.5z"/>
				<rect id="Rectangle_1_" x="-75.2" y="1420.6" class="st4" width="43.7" height="43.7"/>
			</g>
		</g>
	</g>
	<g>
		<path class="st11" d="M49.4,15.9c0-2.6,1.3-4,3.4-4c1.4,0,2.3,0.6,2.9,1.8l-1.4,0.7c-0.2-0.6-0.6-1.1-1.4-1.1
			c-1,0-1.6,0.7-1.6,1.9v1.2c0,1.2,0.6,1.9,1.6,1.9c0.8,0,1.3-0.5,1.5-1.1l1.4,0.8c-0.6,1.2-1.5,1.8-2.9,1.8
			C50.7,19.8,49.4,18.5,49.4,15.9z"/>
		<path class="st11" d="M56.4,16.8c0-1.9,1-3,2.7-3s2.7,1.2,2.7,3s-1,3-2.7,3S56.4,18.6,56.4,16.8z M60.1,17.4v-1.2
			c0-0.7-0.4-1.1-1-1.1s-1,0.4-1,1.1v1.2c0,0.7,0.4,1.1,1,1.1S60.1,18.1,60.1,17.4z"/>
		<path class="st11" d="M63,19.7v-5.8h1.6v1h0.1c0.2-0.6,0.7-1.1,1.6-1.1c1.2,0,1.8,0.8,1.8,2.3v3.6h-1.6v-3.5
			c0-0.7-0.2-1.1-0.8-1.1c-0.5,0-1,0.3-1,0.8v3.7H63z"/>
		<path class="st11" d="M69,18.8l1-1c0.4,0.5,0.9,0.7,1.5,0.7c0.6,0,0.9-0.2,0.9-0.5c0-0.3-0.2-0.4-0.6-0.5l-0.6-0.1
			c-1.3-0.2-1.9-0.7-1.9-1.8c0-1.1,0.9-1.9,2.2-1.9c1.2,0,1.8,0.3,2.4,0.9l-0.9,1C72.5,15.3,72,15,71.6,15c-0.6,0-0.8,0.2-0.8,0.5
			c0,0.3,0.1,0.5,0.6,0.5l0.6,0.1c1.3,0.2,1.9,0.7,1.9,1.7c0,1.1-1,1.9-2.5,1.9C70.4,19.8,69.6,19.4,69,18.8z"/>
		<path class="st11" d="M77,19.7c-1.1,0-1.7-0.6-1.7-1.7v-2.8h-0.8v-1.3h0.4c0.4,0,0.6-0.2,0.6-0.6v-0.9h1.5v1.6H78v1.3h-1.1v3.2H78
			v1.3H77z"/>
		<path class="st11" d="M79.2,19.7v-5.8h1.6v1.3h0.1c0.1-0.6,0.6-1.3,1.5-1.3h0.3v1.5h-0.4c-0.9,0-1.4,0.2-1.4,0.9v3.4H79.2z"/>
		<path class="st11" d="M87,18.7L87,18.7c-0.3,0.6-0.7,1.1-1.7,1.1c-1.2,0-1.8-0.8-1.8-2.3v-3.6h1.6v3.5c0,0.7,0.2,1.1,0.8,1.1
			c0.5,0,1-0.3,1-0.8v-3.8h1.6v5.8H87V18.7z"/>
		<path class="st11" d="M90,12.5v-0.2c0-0.5,0.3-0.8,0.9-0.8s0.9,0.3,0.9,0.8v0.2c0,0.5-0.3,0.8-0.9,0.8S90,12.9,90,12.5z
			 M90.2,13.9h1.6v5.8h-1.6V13.9z"/>
		<path class="st11" d="M93.3,19.7v-5.8H95v1.3H95c0.1-0.6,0.6-1.3,1.5-1.3h0.3v1.5h-0.4c-0.9,0-1.4,0.2-1.4,0.9v3.4H93.3z"/>
		<path class="st11" d="M103.8,18.7L103.8,18.7c-0.3,0.6-0.7,1.1-1.7,1.1c-1.2,0-1.8-0.8-1.8-2.3v-3.6h1.6v3.5
			c0,0.7,0.2,1.1,0.8,1.1c0.5,0,1-0.3,1-0.8v-3.8h1.6v5.8h-1.6V18.7z"/>
		<path class="st11" d="M106.9,19.7v-5.8h1.6v1h0.1c0.2-0.6,0.7-1.1,1.6-1.1c0.8,0,1.4,0.4,1.6,1.2h0c0.2-0.6,0.9-1.2,1.8-1.2
			c1.1,0,1.7,0.8,1.7,2.3v3.6h-1.6v-3.5c0-0.7-0.3-1.1-0.8-1.1c-0.5,0-1,0.3-1,0.8v3.7h-1.6v-3.5c0-0.7-0.3-1.1-0.8-1.1
			c-0.5,0-1,0.3-1,0.8v3.7H106.9z"/>
		<path class="st11" d="M119.3,11.5h1.6v3.3h0.1c0.2-0.6,0.8-1.1,1.6-1.1c1.5,0,2.2,1.1,2.2,3c0,2-0.8,3-2.2,3
			c-0.7,0-1.4-0.5-1.6-1.1H121v1h-1.6V11.5z M123.1,17.3v-1c0-0.7-0.5-1.2-1.1-1.2c-0.6,0-1.1,0.3-1.1,0.8v1.7
			c0,0.5,0.5,0.8,1.1,0.8C122.7,18.5,123.1,18,123.1,17.3z"/>
		<path class="st11" d="M125.7,16.8c0-1.9,1-3,2.7-3c1.7,0,2.7,1.2,2.7,3s-1,3-2.7,3C126.7,19.8,125.7,18.6,125.7,16.8z M129.4,17.4
			v-1.2c0-0.7-0.4-1.1-1-1.1c-0.6,0-1,0.4-1,1.1v1.2c0,0.7,0.4,1.1,1,1.1C129,18.5,129.4,18.1,129.4,17.4z"/>
		<path class="st11" d="M134.2,19.7c-1.1,0-1.7-0.6-1.7-1.7v-2.8h-0.8v-1.3h0.4c0.4,0,0.6-0.2,0.6-0.6v-0.9h1.5v1.6h1.1v1.3h-1.1
			v3.2h1.1v1.3H134.2z"/>
		<path class="st11" d="M142.5,18.7L142.5,18.7c-0.2,0.6-0.9,1.1-1.6,1.1c-1.5,0-2.2-1.1-2.2-3c0-2,0.8-3,2.2-3
			c0.7,0,1.4,0.5,1.6,1.1h0.1v-3.3h1.6v8.1h-1.6V18.7z M142.5,17.6v-1.7c0-0.5-0.5-0.8-1.1-0.8s-1.1,0.5-1.1,1.2v1
			c0,0.7,0.5,1.2,1.1,1.2S142.5,18.2,142.5,17.6z"/>
		<path class="st11" d="M145.3,16.8c0-1.8,1-3,2.7-3c1.9,0,2.7,1.4,2.7,2.9v0.5H147v0.1c0,0.8,0.4,1.2,1.3,1.2
			c0.7,0,1.1-0.3,1.4-0.7l0.8,1c-0.5,0.6-1.4,1-2.4,1C146.3,19.8,145.3,18.6,145.3,16.8z M147,16.2L147,16.2l2,0.1v-0.1
			c0-0.7-0.3-1.2-1-1.2C147.4,15,147,15.4,147,16.2z"/>
		<path class="st11" d="M154.4,19.7v-5.8h1.6v1h0.1c0.2-0.6,0.7-1.1,1.6-1.1c1.2,0,1.8,0.8,1.8,2.3v3.6h-1.6v-3.5
			c0-0.7-0.2-1.1-0.8-1.1c-0.5,0-1,0.3-1,0.8v3.7H154.4z"/>
		<path class="st11" d="M160.6,16.8c0-1.8,1-3,2.7-3c1.9,0,2.7,1.4,2.7,2.9v0.5h-3.7v0.1c0,0.8,0.4,1.2,1.3,1.2
			c0.7,0,1.1-0.3,1.4-0.7l0.8,1c-0.5,0.6-1.4,1-2.4,1C161.6,19.8,160.6,18.6,160.6,16.8z M162.3,16.2L162.3,16.2l2,0.1v-0.1
			c0-0.7-0.3-1.2-1-1.2C162.7,15,162.3,15.4,162.3,16.2z"/>
		<path class="st11" d="M169.4,22c-2,0-2.7-0.5-2.7-1.3c0-0.6,0.4-1,1.1-1.1v-0.1c-0.5-0.1-0.8-0.5-0.8-1c0-0.6,0.5-0.9,1.1-1v0
			c-0.7-0.3-1-0.9-1-1.6c0-1.2,0.8-1.9,2.5-1.9c0.4,0,0.7,0,1,0.1v-0.2c0-0.6,0.3-0.9,0.9-0.9h0.9V14h-1.3v0.1c0.7,0.3,1,0.9,1,1.7
			c0,1.2-0.8,1.9-2.5,1.9c-0.4,0-0.7,0-1-0.1c-0.2,0.1-0.3,0.3-0.3,0.5c0,0.3,0.2,0.4,0.7,0.4h1.7c1.4,0,2,0.6,2,1.7
			C172.5,21.3,171.8,22,169.4,22z M170.1,19.8h-2c-0.1,0.1-0.2,0.3-0.2,0.5c0,0.4,0.3,0.6,1.2,0.6h0.7c0.9,0,1.2-0.2,1.2-0.6
			C171,20,170.8,19.8,170.1,19.8z M170.4,15.8v-0.1c0-0.5-0.3-0.8-1-0.8c-0.6,0-1,0.3-1,0.8v0.1c0,0.5,0.3,0.8,1,0.8
			C170.1,16.6,170.4,16.3,170.4,15.8z"/>
		<path class="st11" d="M172.8,16.8c0-1.9,1-3,2.7-3s2.7,1.2,2.7,3s-1,3-2.7,3S172.8,18.6,172.8,16.8z M176.5,17.4v-1.2
			c0-0.7-0.4-1.1-1-1.1c-0.6,0-1,0.4-1,1.1v1.2c0,0.7,0.4,1.1,1,1.1C176.2,18.5,176.5,18.1,176.5,17.4z"/>
		<path class="st11" d="M179,16.8c0-1.8,1-3,2.7-3c1.2,0,2,0.6,2.3,1.5l-1.3,0.6c-0.1-0.4-0.4-0.8-1-0.8c-0.7,0-1,0.5-1,1.2v1.1
			c0,0.7,0.3,1.2,1,1.2c0.6,0,0.9-0.4,1.1-0.9l1.3,0.5c-0.4,1.1-1.2,1.6-2.3,1.6C180,19.8,179,18.6,179,16.8z"/>
		<path class="st11" d="M184.9,12.5v-0.2c0-0.5,0.3-0.8,0.9-0.8s0.9,0.3,0.9,0.8v0.2c0,0.5-0.3,0.8-0.9,0.8S184.9,12.9,184.9,12.5z
			 M185.1,13.9h1.6v5.8h-1.6V13.9z"/>
		<path class="st11" d="M192.5,19.7c-0.6,0-1-0.4-1.1-1h-0.1c-0.2,0.7-0.8,1.1-1.7,1.1c-1.2,0-1.8-0.7-1.8-1.7
			c0-1.2,0.9-1.8,2.5-1.8h0.9V16c0-0.6-0.3-0.9-1-0.9c-0.6,0-1,0.3-1.2,0.7l-1-0.9c0.5-0.7,1.1-1.1,2.3-1.1c1.6,0,2.5,0.7,2.5,2.1
			v2.5h0.5v1.3H192.5z M191.2,17.9v-0.7h-0.8c-0.6,0-1,0.2-1,0.6v0.2c0,0.4,0.3,0.6,0.8,0.6C190.8,18.7,191.2,18.5,191.2,17.9z"/>
		<path class="st11" d="M199.1,15.3l-1.3,0.6c-0.1-0.4-0.4-0.8-1-0.8c-0.7,0-1,0.5-1,1.2v1.1c0,0.7,0.3,1.2,1,1.2
			c0.6,0,0.9-0.4,1.1-0.9l1.3,0.5c-0.4,1.1-1.2,1.6-2.2,1.6l-0.1,0.5l0,0c0.2,0,0.4-0.1,0.5-0.1c0.4,0,0.8,0.2,0.8,0.8
			c0,0.7-0.7,1-1.5,1c-0.8,0-1.2-0.3-1.4-0.5l0.5-0.6c0.1,0.2,0.4,0.3,0.7,0.3c0.3,0,0.5-0.1,0.5-0.3c0-0.2-0.1-0.4-0.8-0.4l-0.2,0
			l0.2-0.7c-1.3-0.3-2.1-1.4-2.1-3c0-1.8,1-3,2.7-3C198,13.8,198.8,14.3,199.1,15.3z"/>
		<path class="st11" d="M204.4,19.7c-0.6,0-1-0.4-1.1-1h-0.1c-0.2,0.7-0.8,1.1-1.7,1.1c-1.2,0-1.8-0.7-1.8-1.7
			c0-1.2,0.9-1.8,2.5-1.8h0.9V16c0-0.6-0.3-0.9-1-0.9c-0.6,0-1,0.3-1.2,0.7l-1-0.9c0.5-0.7,1.1-1.1,2.3-1.1c1.6,0,2.5,0.7,2.5,2.1
			v2.5h0.5v1.3H204.4z M202.3,12.8c-0.3-0.1-0.6-0.2-0.9-0.2c-0.3,0-0.4,0.1-0.6,0.3l-0.6-0.7c0.3-0.4,0.7-0.7,1.3-0.7
			c0.3,0,0.6,0.1,0.8,0.2c0.3,0.1,0.6,0.2,0.9,0.2c0.3,0,0.4-0.1,0.6-0.3l0.6,0.7c-0.3,0.4-0.7,0.7-1.3,0.7
			C202.9,13.1,202.6,13,202.3,12.8z M203.2,17.9v-0.7h-0.8c-0.6,0-1,0.2-1,0.6v0.2c0,0.4,0.3,0.6,0.8,0.6
			C202.7,18.7,203.2,18.5,203.2,17.9z"/>
		<path class="st11" d="M206.1,16.8c0-1.9,1-3,2.7-3s2.7,1.2,2.7,3s-1,3-2.7,3S206.1,18.6,206.1,16.8z M209.8,17.4v-1.2
			c0-0.7-0.4-1.1-1-1.1c-0.6,0-1,0.4-1,1.1v1.2c0,0.7,0.4,1.1,1,1.1C209.4,18.5,209.8,18.1,209.8,17.4z"/>
		<path class="st11" d="M49.9,28.4h-0.8v-1.3h0.8v-0.7c0-1.1,0.6-1.7,1.7-1.7h1.1V26h-1.2v1.1h3.7v5.8h-1.6v-4.5h-2.1v4.5h-1.6V28.4
			z M53.4,25.7v-0.2c0-0.5,0.3-0.8,0.9-0.8s0.9,0.3,0.9,0.8v0.2c0,0.5-0.3,0.8-0.9,0.8S53.4,26.1,53.4,25.7z"/>
		<path class="st11" d="M56.3,30c0-1.8,1-3,2.7-3c1.2,0,2,0.6,2.3,1.5L60,29c-0.1-0.4-0.4-0.8-1-0.8c-0.7,0-1,0.5-1,1.2v1.1
			c0,0.7,0.3,1.2,1,1.2c0.6,0,0.9-0.4,1.1-0.9l1.3,0.5C61,32.5,60.2,33,59,33C57.3,33,56.3,31.8,56.3,30z"/>
		<path class="st11" d="M62,30c0-1.9,1-3,2.7-3c1.7,0,2.7,1.2,2.7,3s-1,3-2.7,3C63,33,62,31.8,62,30z M65.7,30.6v-1.2
			c0-0.7-0.4-1.1-1-1.1s-1,0.4-1,1.1v1.2c0,0.7,0.4,1.1,1,1.1S65.7,31.3,65.7,30.6z"/>
		<path class="st11" d="M72,31.9L72,31.9c-0.3,0.6-0.7,1.1-1.7,1.1c-1.2,0-1.8-0.8-1.8-2.3v-3.6h1.6v3.5c0,0.7,0.2,1.1,0.8,1.1
			c0.5,0,1-0.3,1-0.8v-3.8h1.6v5.8H72V31.9z"/>
		<path class="st11" d="M77.7,32.9v-5.8h1.6v1h0.1c0.2-0.6,0.7-1.1,1.6-1.1c0.8,0,1.4,0.4,1.6,1.2h0c0.2-0.6,0.9-1.2,1.8-1.2
			c1.1,0,1.7,0.8,1.7,2.3v3.6h-1.6v-3.5c0-0.7-0.3-1.1-0.8-1.1c-0.5,0-1,0.3-1,0.8v3.7h-1.6v-3.5c0-0.7-0.3-1.1-0.8-1.1
			c-0.5,0-1,0.3-1,0.8v3.7H77.7z"/>
		<path class="st11" d="M91.8,32.9c-0.6,0-1-0.4-1.1-1h-0.1c-0.2,0.7-0.8,1.1-1.7,1.1c-1.2,0-1.8-0.7-1.8-1.7c0-1.2,0.9-1.8,2.5-1.8
			h0.9v-0.4c0-0.6-0.3-0.9-1-0.9c-0.6,0-1,0.3-1.2,0.7l-1-0.9c0.5-0.7,1.1-1.1,2.3-1.1c1.6,0,2.5,0.7,2.5,2.1v2.5h0.5v1.3H91.8z
			 M90.5,31.1v-0.7h-0.8c-0.6,0-1,0.2-1,0.6v0.2c0,0.4,0.3,0.6,0.8,0.6C90.1,31.9,90.5,31.7,90.5,31.1z"/>
		<path class="st11" d="M93.7,25.7v-0.2c0-0.5,0.3-0.8,0.9-0.8s0.9,0.3,0.9,0.8v0.2c0,0.5-0.3,0.8-0.9,0.8S93.7,26.1,93.7,25.7z
			 M93.8,27.1h1.6v5.8h-1.6V27.1z"/>
		<path class="st11" d="M96.5,32l1-1c0.4,0.5,0.9,0.7,1.5,0.7c0.6,0,0.9-0.2,0.9-0.5c0-0.3-0.2-0.4-0.6-0.5l-0.6-0.1
			c-1.3-0.2-1.9-0.7-1.9-1.8c0-1.1,0.9-1.9,2.2-1.9c1.2,0,1.8,0.3,2.4,0.9l-0.9,1c-0.4-0.4-0.8-0.6-1.3-0.6c-0.6,0-0.8,0.2-0.8,0.5
			c0,0.3,0.1,0.5,0.6,0.5l0.6,0.1c1.3,0.2,1.9,0.7,1.9,1.7c0,1.1-1,1.9-2.5,1.9C97.8,33,97.1,32.6,96.5,32z"/>
		<path class="st11" d="M104.6,32l1-1c0.4,0.5,0.9,0.7,1.5,0.7c0.6,0,0.9-0.2,0.9-0.5c0-0.3-0.2-0.4-0.6-0.5l-0.6-0.1
			c-1.3-0.2-1.9-0.7-1.9-1.8c0-1.1,0.9-1.9,2.2-1.9c1.2,0,1.8,0.3,2.4,0.9l-0.9,1c-0.4-0.4-0.8-0.6-1.3-0.6c-0.6,0-0.8,0.2-0.8,0.5
			c0,0.3,0.1,0.5,0.6,0.5l0.6,0.1c1.3,0.2,1.9,0.7,1.9,1.7c0,1.1-1,1.9-2.5,1.9C105.9,33,105.2,32.6,104.6,32z"/>
		<path class="st11" d="M110.5,25.7v-0.2c0-0.5,0.3-0.8,0.9-0.8s0.9,0.3,0.9,0.8v0.2c0,0.5-0.3,0.8-0.9,0.8S110.5,26.1,110.5,25.7z
			 M110.6,27.1h1.6v5.8h-1.6V27.1z"/>
		<path class="st11" d="M113.8,32.9v-5.8h1.6v1h0.1c0.2-0.6,0.7-1.1,1.6-1.1c0.8,0,1.4,0.4,1.6,1.2h0c0.2-0.6,0.9-1.2,1.8-1.2
			c1.1,0,1.7,0.8,1.7,2.3v3.6h-1.6v-3.5c0-0.7-0.3-1.1-0.8-1.1c-0.5,0-1,0.3-1,0.8v3.7h-1.6v-3.5c0-0.7-0.3-1.1-0.8-1.1
			c-0.5,0-1,0.3-1,0.8v3.7H113.8z"/>
		<path class="st11" d="M123.6,27.1h1.6v1h0.1c0.2-0.6,0.8-1.1,1.6-1.1c1.5,0,2.2,1.1,2.2,3c0,2-0.8,3-2.2,3c-0.7,0-1.4-0.5-1.6-1.1
			h-0.1v3.2h-1.6V27.1z M127.4,30.5v-1c0-0.7-0.5-1.2-1.1-1.2c-0.6,0-1.1,0.3-1.1,0.8v1.7c0,0.5,0.5,0.8,1.1,0.8
			C126.9,31.7,127.4,31.2,127.4,30.5z"/>
		<path class="st11" d="M131.9,32.9c-1.1,0-1.6-0.6-1.6-1.6v-6.6h1.6v6.9h0.7v1.3H131.9z"/>
		<path class="st11" d="M133.3,30c0-1.8,1-3,2.7-3c1.9,0,2.7,1.4,2.7,2.9v0.5h-3.7v0.1c0,0.8,0.4,1.2,1.3,1.2c0.7,0,1.1-0.3,1.4-0.7
			l0.8,1c-0.5,0.6-1.4,1-2.4,1C134.3,33,133.3,31.8,133.3,30z M134.9,29.4L134.9,29.4l2,0.1v-0.1c0-0.7-0.3-1.2-1-1.2
			C135.3,28.2,134.9,28.6,134.9,29.4z"/>
		<path class="st11" d="M139.3,32l1-1c0.4,0.5,0.9,0.7,1.5,0.7c0.6,0,0.9-0.2,0.9-0.5c0-0.3-0.2-0.4-0.6-0.5l-0.6-0.1
			c-1.3-0.2-1.9-0.7-1.9-1.8c0-1.1,0.9-1.9,2.2-1.9c1.2,0,1.8,0.3,2.4,0.9l-0.9,1c-0.4-0.4-0.8-0.6-1.3-0.6c-0.6,0-0.8,0.2-0.8,0.5
			c0,0.3,0.1,0.5,0.6,0.5l0.6,0.1c1.3,0.2,1.9,0.7,1.9,1.7c0,1.1-1,1.9-2.5,1.9C140.6,33,139.9,32.6,139.3,32z"/>
		<path class="st11" d="M147.6,30c0-1.8,1-3,2.7-3c1.9,0,2.7,1.4,2.7,2.9v0.5h-3.7v0.1c0,0.8,0.4,1.2,1.3,1.2c0.7,0,1.1-0.3,1.4-0.7
			l0.8,1c-0.5,0.6-1.4,1-2.4,1C148.6,33,147.6,31.8,147.6,30z M149.3,29.4L149.3,29.4l2,0.1v-0.1c0-0.7-0.3-1.2-1-1.2
			C149.7,28.2,149.3,28.6,149.3,29.4z"/>
		<path class="st11" d="M156.7,32.9v-5.8h1.6v1h0.1c0.2-0.6,0.7-1.1,1.6-1.1c0.8,0,1.4,0.4,1.6,1.2h0c0.2-0.6,0.9-1.2,1.8-1.2
			c1.1,0,1.7,0.8,1.7,2.3v3.6h-1.6v-3.5c0-0.7-0.3-1.1-0.8-1.1c-0.5,0-1,0.3-1,0.8v3.7h-1.6v-3.5c0-0.7-0.3-1.1-0.8-1.1
			c-0.5,0-1,0.3-1,0.8v3.7H156.7z"/>
		<path class="st11" d="M166.2,30c0-1.8,1-3,2.7-3c1.9,0,2.7,1.4,2.7,2.9v0.5h-3.7v0.1c0,0.8,0.4,1.2,1.3,1.2c0.7,0,1.1-0.3,1.4-0.7
			l0.8,1c-0.5,0.6-1.4,1-2.4,1C167.2,33,166.2,31.8,166.2,30z M167.9,29.4L167.9,29.4l2,0.1v-0.1c0-0.7-0.3-1.2-1-1.2
			C168.3,28.2,167.9,28.6,167.9,29.4z"/>
		<path class="st11" d="M174.3,32.9c-1.1,0-1.6-0.6-1.6-1.6v-6.6h1.6v6.9h0.7v1.3H174.3z"/>
		<path class="st11" d="M176.1,24.7h1.6v3.3h0.1c0.2-0.6,0.7-1.1,1.6-1.1c1.2,0,1.8,0.8,1.8,2.3v3.6h-1.6v-3.5
			c0-0.7-0.2-1.1-0.8-1.1c-0.5,0-1,0.3-1,0.8v3.7h-1.6V24.7z"/>
		<path class="st11" d="M182.3,30c0-1.9,1-3,2.7-3s2.7,1.2,2.7,3s-1,3-2.7,3S182.3,31.8,182.3,30z M186,30.6v-1.2
			c0-0.7-0.4-1.1-1-1.1c-0.6,0-1,0.4-1,1.1v1.2c0,0.7,0.4,1.1,1,1.1C185.6,31.7,186,31.3,186,30.6z"/>
		<path class="st11" d="M188.8,32.9v-5.8h1.6v1.3h0.1c0.1-0.6,0.6-1.3,1.5-1.3h0.3v1.5h-0.4c-0.9,0-1.4,0.2-1.4,0.9v3.4H188.8z"/>
	</g>
	<path class="st1" d="M228.2,1439.6h98.4c1.5,0,2.7,1.2,2.7,2.7v16.1c0,1.5-1.2,2.7-2.7,2.7h-98.4c-1.5,0-2.7-1.2-2.7-2.7v-16.1
		C225.5,1440.8,226.7,1439.6,228.2,1439.6z"/>
	<g>
		<path class="st2" d="M242.8,1448.3v5.3h-1.4v-5.3h-1.8v-1.3h5v1.3H242.8z"/>
		<path class="st2" d="M245.5,1453.6v-4.9h1.4v1.1h0c0-0.1,0.1-0.3,0.1-0.4s0.1-0.2,0.2-0.3c0.1-0.1,0.2-0.2,0.4-0.2
			c0.1-0.1,0.3-0.1,0.5-0.1h0.2v1.3h-0.3c-0.4,0-0.7,0.1-0.9,0.2c-0.2,0.1-0.3,0.3-0.3,0.6v2.9H245.5z"/>
		<path class="st2" d="M252.3,1448.7h1.3l-1.9,5.7c-0.1,0.4-0.3,0.7-0.5,0.8c-0.2,0.2-0.6,0.3-1,0.3h-0.9v-1.1h0.9l0.2-0.5l-1.7-5.2
			h1.4l0.7,2.3l0.4,1.4h0.1l0.4-1.4L252.3,1448.7z"/>
		<path class="st2" d="M256.6,1447.1h2.5c0.4,0,0.8,0.1,1.2,0.2c0.4,0.1,0.7,0.3,0.9,0.6c0.2,0.3,0.4,0.6,0.6,1s0.2,0.9,0.2,1.4
			s-0.1,1-0.2,1.4c-0.1,0.4-0.3,0.8-0.6,1c-0.2,0.3-0.6,0.5-0.9,0.6s-0.8,0.2-1.2,0.2h-2.5V1447.1z M259,1452.4c0.4,0,0.8-0.1,1-0.4
			s0.4-0.6,0.4-1.1v-1c0-0.5-0.1-0.9-0.4-1.1s-0.6-0.4-1-0.4h-1v4H259z"/>
		<path class="st2" d="M263.1,1447.1h3.2c0.5,0,1,0.2,1.3,0.5c0.3,0.3,0.5,0.7,0.5,1.2c0,0.2,0,0.5-0.1,0.6s-0.2,0.3-0.3,0.4
			c-0.1,0.1-0.2,0.2-0.4,0.2c-0.1,0.1-0.3,0.1-0.5,0.1v0.1c0.2,0,0.3,0,0.5,0.1s0.3,0.1,0.5,0.3c0.1,0.1,0.3,0.3,0.4,0.5
			c0.1,0.2,0.1,0.4,0.1,0.7c0,0.3,0,0.5-0.1,0.7c-0.1,0.2-0.2,0.4-0.4,0.6c-0.2,0.2-0.3,0.3-0.5,0.4s-0.4,0.1-0.7,0.1h-3.5V1447.1z
			 M264.5,1449.8h1.4c0.2,0,0.3-0.1,0.4-0.2s0.2-0.3,0.2-0.4v-0.3c0-0.2-0.1-0.3-0.2-0.4c-0.1-0.1-0.3-0.2-0.4-0.2h-1.4V1449.8z
			 M264.5,1452.4h1.6c0.2,0,0.3-0.1,0.4-0.2c0.1-0.1,0.2-0.2,0.2-0.4v-0.3c0-0.2-0.1-0.3-0.2-0.4c-0.1-0.1-0.3-0.2-0.4-0.2h-1.6
			V1452.4z"/>
		<path class="st2" d="M271.3,1453.7c-0.4,0-0.7-0.1-1-0.2c-0.3-0.1-0.5-0.3-0.7-0.5c-0.2-0.2-0.3-0.5-0.5-0.8
			c-0.1-0.3-0.2-0.7-0.2-1.1s0.1-0.8,0.2-1.1c0.1-0.3,0.3-0.6,0.5-0.8c0.2-0.2,0.4-0.4,0.7-0.5c0.3-0.1,0.6-0.2,1-0.2
			c0.4,0,0.7,0.1,1,0.2c0.3,0.1,0.5,0.3,0.7,0.5c0.2,0.2,0.3,0.5,0.5,0.8c0.1,0.3,0.2,0.7,0.2,1.1s-0.1,0.8-0.2,1.1
			c-0.1,0.3-0.3,0.6-0.5,0.8c-0.2,0.2-0.4,0.4-0.7,0.5C272,1453.7,271.6,1453.7,271.3,1453.7z M271.3,1452.6c0.3,0,0.5-0.1,0.6-0.3
			c0.1-0.2,0.2-0.4,0.2-0.7v-1c0-0.3-0.1-0.6-0.2-0.7c-0.2-0.2-0.4-0.3-0.6-0.3c-0.3,0-0.5,0.1-0.6,0.3c-0.2,0.2-0.2,0.4-0.2,0.7v1
			c0,0.3,0.1,0.6,0.2,0.7C270.8,1452.6,271,1452.6,271.3,1452.6z"/>
		<path class="st2" d="M276.3,1453.6c-0.5,0-0.8-0.1-1.1-0.4c-0.2-0.2-0.4-0.6-0.4-1.1v-2.4h-0.7v-1.1h0.3c0.2,0,0.3,0,0.4-0.1
			c0.1-0.1,0.1-0.2,0.1-0.4v-0.8h1.2v1.3h1v1.1h-1v2.8h0.9v1.1H276.3z"/>
		<path class="st2" d="M282.4,1453.7c-0.4,0-0.7-0.1-1-0.2c-0.3-0.1-0.5-0.3-0.7-0.5c-0.2-0.2-0.3-0.5-0.5-0.8
			c-0.1-0.3-0.2-0.7-0.2-1.1s0.1-0.8,0.2-1.1c0.1-0.3,0.3-0.6,0.5-0.8c0.2-0.2,0.4-0.4,0.7-0.5c0.3-0.1,0.6-0.2,1-0.2
			c0.4,0,0.7,0.1,1,0.2c0.3,0.1,0.5,0.3,0.7,0.5c0.2,0.2,0.3,0.5,0.5,0.8c0.1,0.3,0.2,0.7,0.2,1.1s-0.1,0.8-0.2,1.1
			c-0.1,0.3-0.3,0.6-0.5,0.8c-0.2,0.2-0.4,0.4-0.7,0.5C283,1453.7,282.7,1453.7,282.4,1453.7z M282.4,1452.6c0.3,0,0.5-0.1,0.6-0.3
			c0.1-0.2,0.2-0.4,0.2-0.7v-1c0-0.3-0.1-0.6-0.2-0.7c-0.2-0.2-0.4-0.3-0.6-0.3c-0.3,0-0.5,0.1-0.6,0.3c-0.2,0.2-0.2,0.4-0.2,0.7v1
			c0,0.3,0.1,0.6,0.2,0.7C281.9,1452.6,282.1,1452.6,282.4,1452.6z"/>
		<path class="st2" d="M285.7,1453.6v-4.9h1.4v0.8h0.1c0.1-0.3,0.2-0.5,0.5-0.7s0.5-0.3,0.9-0.3c0.5,0,0.9,0.2,1.1,0.5
			c0.3,0.3,0.4,0.8,0.4,1.4v3.1h-1.4v-3c0-0.3-0.1-0.6-0.2-0.7c-0.1-0.2-0.3-0.2-0.5-0.2c-0.1,0-0.2,0-0.3,0c-0.1,0-0.2,0.1-0.3,0.1
			c-0.1,0.1-0.2,0.1-0.2,0.2c0,0.1-0.1,0.2-0.1,0.3v3.2H285.7z"/>
		<path class="st2" d="M293.5,1447.1h2.5c0.4,0,0.8,0.1,1.2,0.2c0.4,0.1,0.7,0.3,0.9,0.6c0.2,0.3,0.4,0.6,0.6,1s0.2,0.9,0.2,1.4
			s-0.1,1-0.2,1.4c-0.1,0.4-0.3,0.8-0.6,1c-0.2,0.3-0.6,0.5-0.9,0.6s-0.8,0.2-1.2,0.2h-2.5V1447.1z M296,1452.4c0.4,0,0.8-0.1,1-0.4
			s0.4-0.6,0.4-1.1v-1c0-0.5-0.1-0.9-0.4-1.1s-0.6-0.4-1-0.4h-1v4H296z"/>
		<path class="st2" d="M302,1453.7c-0.4,0-0.7-0.1-1-0.2s-0.5-0.3-0.7-0.5c-0.2-0.2-0.4-0.5-0.5-0.8c-0.1-0.3-0.2-0.7-0.2-1.1
			c0-0.4,0-0.7,0.1-1.1c0.1-0.3,0.2-0.6,0.4-0.8c0.2-0.2,0.4-0.4,0.7-0.5c0.3-0.1,0.6-0.2,1-0.2c0.4,0,0.8,0.1,1,0.2
			c0.3,0.1,0.5,0.3,0.7,0.6s0.3,0.5,0.4,0.8c0.1,0.3,0.1,0.6,0.1,1v0.4h-3.2v0.1c0,0.3,0.1,0.6,0.3,0.8c0.2,0.2,0.4,0.3,0.8,0.3
			c0.3,0,0.5-0.1,0.7-0.2c0.2-0.1,0.3-0.3,0.5-0.4l0.7,0.9c-0.2,0.3-0.5,0.5-0.9,0.6C302.9,1453.7,302.5,1453.7,302,1453.7z
			 M302,1449.6c-0.3,0-0.5,0.1-0.7,0.3c-0.2,0.2-0.2,0.4-0.2,0.7v0.1h1.7v-0.1c0-0.3-0.1-0.5-0.2-0.7S302.3,1449.6,302,1449.6z"/>
		<path class="st2" d="M305.3,1453.6v-4.9h1.4v1.1h0c0-0.1,0.1-0.3,0.1-0.4s0.1-0.2,0.2-0.3c0.1-0.1,0.2-0.2,0.4-0.2
			c0.1-0.1,0.3-0.1,0.5-0.1h0.2v1.3h-0.3c-0.4,0-0.7,0.1-0.9,0.2c-0.2,0.1-0.3,0.3-0.3,0.6v2.9H305.3z"/>
		<path class="st2" d="M309.7,1448.2c-0.3,0-0.5-0.1-0.6-0.2s-0.2-0.3-0.2-0.5v-0.2c0-0.2,0.1-0.4,0.2-0.5s0.3-0.2,0.6-0.2
			s0.5,0.1,0.6,0.2s0.2,0.3,0.2,0.5v0.2c0,0.2-0.1,0.4-0.2,0.5S310,1448.2,309.7,1448.2z M309,1448.7h1.4v4.9H309V1448.7z"/>
		<path class="st2" d="M312.8,1453.6l-1.6-4.9h1.4l0.6,2l0.5,1.8h0.1l0.5-1.8l0.6-2h1.3l-1.6,4.9H312.8z"/>
	</g>
	<g>
		<path class="st11" d="M68.3,1439.9h4.2c1.4,0,2.3,0.9,2.3,2.2c0,1.3-0.7,1.8-1.6,1.9v0.1c0.8,0,2,0.5,2,2c0,1.4-1,2.5-2.2,2.5
			h-4.6V1439.9z M70.2,1443.4h1.9c0.5,0,0.8-0.3,0.8-0.8v-0.4c0-0.5-0.3-0.8-0.8-0.8h-1.9V1443.4z M70.2,1447h2.2
			c0.5,0,0.8-0.3,0.8-0.8v-0.4c0-0.5-0.3-0.8-0.8-0.8h-2.2V1447z"/>
		<path class="st11" d="M80.4,1447.5L80.4,1447.5c-0.3,0.7-0.8,1.2-1.9,1.2c-1.3,0-2-0.9-2-2.6v-4.1h1.8v4c0,0.8,0.3,1.2,0.9,1.2
			c0.6,0,1.2-0.3,1.2-0.9v-4.3h1.8v6.6h-1.8V1447.5z"/>
		<path class="st11" d="M83.8,1440.4v-0.3c0-0.5,0.3-0.9,1.1-0.9s1.1,0.4,1.1,0.9v0.3c0,0.5-0.3,0.9-1.1,0.9S83.8,1441,83.8,1440.4z
			 M84,1442h1.8v6.6H84V1442z"/>
		<path class="st11" d="M89.4,1448.6c-1.3,0-1.8-0.6-1.8-1.8v-7.4h1.8v7.8h0.8v1.4H89.4z"/>
		<path class="st11" d="M95.4,1447.5L95.4,1447.5c-0.2,0.7-1,1.2-1.8,1.2c-1.7,0-2.5-1.2-2.5-3.4s0.9-3.4,2.5-3.4
			c0.8,0,1.6,0.5,1.8,1.2h0.1v-3.8h1.8v9.2h-1.8V1447.5z M95.4,1446.3v-1.9c0-0.6-0.5-1-1.2-1c-0.7,0-1.2,0.5-1.2,1.4v1.1
			c0,0.8,0.5,1.4,1.2,1.4C94.8,1447.2,95.4,1446.9,95.4,1446.3z"/>
		<path class="st11" d="M98.8,1440.4v-0.3c0-0.5,0.3-0.9,1.1-0.9s1.1,0.4,1.1,0.9v0.3c0,0.5-0.3,0.9-1.1,0.9S98.8,1441,98.8,1440.4z
			 M98.9,1442h1.8v6.6h-1.8V1442z"/>
		<path class="st11" d="M102.5,1448.6v-6.6h1.8v1.1h0.1c0.2-0.7,0.8-1.3,1.8-1.3c1.3,0,2,0.9,2,2.6v4.1h-1.8v-4
			c0-0.8-0.2-1.2-0.9-1.2c-0.6,0-1.2,0.3-1.2,1v4.2H102.5z"/>
		<path class="st11" d="M112.5,1451.2c-2.3,0-3.1-0.6-3.1-1.5c0-0.7,0.5-1.1,1.2-1.2v-0.1c-0.6-0.1-0.9-0.6-0.9-1.1
			c0-0.7,0.6-1,1.2-1.2v0c-0.8-0.4-1.2-1-1.2-1.9c0-1.3,0.9-2.2,2.8-2.2c0.4,0,0.8,0,1.1,0.1v-0.2c0-0.7,0.4-1,1-1h1v1.4h-1.4v0.1
			c0.8,0.4,1.1,1,1.1,1.9c0,1.3-0.9,2.2-2.8,2.2c-0.4,0-0.8,0-1.2-0.1c-0.2,0.1-0.3,0.3-0.3,0.5c0,0.3,0.2,0.5,0.8,0.5h1.9
			c1.6,0,2.3,0.7,2.3,1.9C116,1450.5,115.1,1451.2,112.5,1451.2z M113.3,1448.7H111c-0.2,0.2-0.2,0.4-0.2,0.6c0,0.5,0.4,0.7,1.4,0.7
			h0.7c1,0,1.4-0.2,1.4-0.7C114.3,1448.9,114,1448.7,113.3,1448.7z M113.6,1444.2v-0.1c0-0.6-0.4-0.9-1.1-0.9
			c-0.7,0-1.1,0.3-1.1,0.9v0.1c0,0.6,0.4,0.9,1.1,0.9C113.2,1445.1,113.6,1444.7,113.6,1444.2z"/>
		<path class="st11" d="M124.6,1448.6c-0.7,0-1.1-0.4-1.2-1.1h-0.1c-0.2,0.8-0.9,1.3-1.9,1.3c-1.3,0-2-0.8-2-1.9c0-1.4,1.1-2,2.8-2
			h1v-0.4c0-0.6-0.3-1-1.1-1c-0.7,0-1.1,0.4-1.4,0.8l-1.1-1c0.5-0.8,1.3-1.2,2.6-1.2c1.8,0,2.8,0.8,2.8,2.4v2.9h0.6v1.4H124.6z
			 M123.2,1446.6v-0.8h-0.9c-0.7,0-1.1,0.3-1.1,0.7v0.2c0,0.5,0.3,0.7,0.9,0.7C122.7,1447.5,123.2,1447.2,123.2,1446.6z"/>
		<path class="st11" d="M132.1,1448.6c-1.3,0-1.9-0.7-1.9-1.9v-3.2h-0.9v-1.4h0.5c0.5,0,0.6-0.2,0.6-0.7v-1.1h1.7v1.8h1.3v1.4H132
			v3.7h1.2v1.4H132.1z"/>
		<path class="st11" d="M134.6,1448.6v-6.6h1.8v1.4h0.1c0.2-0.7,0.6-1.4,1.7-1.4h0.3v1.7h-0.5c-1.1,0-1.6,0.2-1.6,1v3.8H134.6z"/>
		<path class="st11" d="M144.3,1448.6c-0.7,0-1.1-0.4-1.2-1.1H143c-0.2,0.8-0.9,1.3-1.9,1.3c-1.3,0-2-0.8-2-1.9c0-1.4,1.1-2,2.8-2h1
			v-0.4c0-0.6-0.3-1-1.1-1c-0.7,0-1.1,0.4-1.4,0.8l-1.1-1c0.5-0.8,1.3-1.2,2.6-1.2c1.8,0,2.8,0.8,2.8,2.4v2.9h0.6v1.4H144.3z
			 M142.9,1446.6v-0.8H142c-0.7,0-1.1,0.3-1.1,0.7v0.2c0,0.5,0.3,0.7,0.9,0.7C142.4,1447.5,142.9,1447.2,142.9,1446.6z"/>
		<path class="st11" d="M150.6,1447.5L150.6,1447.5c-0.2,0.7-1,1.2-1.8,1.2c-1.7,0-2.5-1.2-2.5-3.4s0.9-3.4,2.5-3.4
			c0.8,0,1.6,0.5,1.8,1.2h0.1v-3.8h1.8v9.2h-1.8V1447.5z M150.6,1446.3v-1.9c0-0.6-0.5-1-1.2-1c-0.7,0-1.2,0.5-1.2,1.4v1.1
			c0,0.8,0.5,1.4,1.2,1.4C150.1,1447.2,150.6,1446.9,150.6,1446.3z"/>
		<path class="st11" d="M154,1440.4v-0.3c0-0.5,0.3-0.9,1.1-0.9s1.1,0.4,1.1,0.9v0.3c0,0.5-0.3,0.9-1.1,0.9S154,1441,154,1440.4z
			 M154.2,1442h1.8v6.6h-1.8V1442z"/>
		<path class="st11" d="M157.7,1448.6v-6.6h1.8v1.1h0.1c0.2-0.7,0.8-1.3,1.8-1.3c1.3,0,2,0.9,2,2.6v4.1h-1.8v-4
			c0-0.8-0.2-1.2-0.9-1.2c-0.6,0-1.2,0.3-1.2,1v4.2H157.7z"/>
		<path class="st11" d="M167.7,1451.2c-2.3,0-3.1-0.6-3.1-1.5c0-0.7,0.5-1.1,1.2-1.2v-0.1c-0.6-0.1-0.9-0.6-0.9-1.1
			c0-0.7,0.6-1,1.2-1.2v0c-0.8-0.4-1.2-1-1.2-1.9c0-1.3,0.9-2.2,2.8-2.2c0.4,0,0.8,0,1.1,0.1v-0.2c0-0.7,0.4-1,1-1h1v1.4h-1.4v0.1
			c0.8,0.4,1.1,1,1.1,1.9c0,1.3-0.9,2.2-2.8,2.2c-0.4,0-0.8,0-1.2-0.1c-0.2,0.1-0.3,0.3-0.3,0.5c0,0.3,0.2,0.5,0.8,0.5h1.9
			c1.6,0,2.3,0.7,2.3,1.9C171.3,1450.5,170.4,1451.2,167.7,1451.2z M168.5,1448.7h-2.2c-0.2,0.2-0.2,0.4-0.2,0.6
			c0,0.5,0.4,0.7,1.4,0.7h0.7c1,0,1.4-0.2,1.4-0.7C169.5,1448.9,169.2,1448.7,168.5,1448.7z M168.8,1444.2v-0.1
			c0-0.6-0.4-0.9-1.1-0.9c-0.7,0-1.1,0.3-1.1,0.9v0.1c0,0.6,0.4,0.9,1.1,0.9C168.5,1445.1,168.8,1444.7,168.8,1444.2z"/>
		<path class="st11" d="M175,1439.4h1.8v3.8h0.1c0.2-0.7,0.9-1.2,1.8-1.2c1.7,0,2.5,1.2,2.5,3.4s-0.9,3.4-2.5,3.4
			c-0.8,0-1.6-0.5-1.8-1.2h-0.1v1.1H175V1439.4z M179.3,1445.9v-1.1c0-0.8-0.5-1.4-1.2-1.4c-0.7,0-1.2,0.4-1.2,1v1.9
			c0,0.6,0.5,1,1.2,1C178.8,1447.2,179.3,1446.7,179.3,1445.9z"/>
		<path class="st11" d="M182.2,1445.3c0-2.1,1.1-3.4,3.1-3.4c1.9,0,3.1,1.3,3.1,3.4s-1.1,3.4-3.1,3.4
			C183.3,1448.7,182.2,1447.4,182.2,1445.3z M186.4,1446v-1.3c0-0.8-0.4-1.3-1.1-1.3c-0.7,0-1.1,0.5-1.1,1.3v1.3
			c0,0.8,0.4,1.3,1.1,1.3C186,1447.3,186.4,1446.8,186.4,1446z"/>
		<path class="st11" d="M191.9,1448.6c-1.3,0-1.9-0.7-1.9-1.9v-3.2H189v-1.4h0.5c0.5,0,0.6-0.2,0.6-0.7v-1.1h1.7v1.8h1.3v1.4h-1.3
			v3.7h1.2v1.4H191.9z"/>
		<path class="st11" d="M197.3,1442h1.8v7.3c0,1.2-0.6,1.8-1.8,1.8h-1v-1.4h1V1442z M197.2,1440.4v-0.3c0-0.5,0.3-0.9,1.1-0.9
			s1.1,0.4,1.1,0.9v0.3c0,0.5-0.3,0.9-1.1,0.9S197.2,1441,197.2,1440.4z"/>
		<path class="st11" d="M204.7,1447.5L204.7,1447.5c-0.3,0.7-0.8,1.2-1.9,1.2c-1.3,0-2-0.9-2-2.6v-4.1h1.8v4c0,0.8,0.3,1.2,0.9,1.2
			c0.6,0,1.2-0.3,1.2-0.9v-4.3h1.8v6.6h-1.8V1447.5z"/>
		<path class="st11" d="M207.8,1447.6l1.1-1.1c0.5,0.5,1,0.8,1.7,0.8c0.7,0,1-0.2,1-0.6c0-0.3-0.2-0.5-0.7-0.5l-0.7-0.1
			c-1.5-0.2-2.2-0.8-2.2-2c0-1.3,1-2.1,2.5-2.1c1.4,0,2,0.4,2.7,1l-1.1,1.1c-0.4-0.4-1-0.7-1.5-0.7c-0.6,0-0.9,0.2-0.9,0.5
			c0,0.3,0.1,0.5,0.7,0.6l0.7,0.1c1.4,0.2,2.2,0.8,2.2,2c0,1.3-1.1,2.2-2.8,2.2C209.3,1448.7,208.5,1448.3,207.8,1447.6z"/>
		<path class="st11" d="M216.8,1448.6c-1.3,0-1.9-0.7-1.9-1.9v-3.2h-0.9v-1.4h0.5c0.5,0,0.6-0.2,0.6-0.7v-1.1h1.7v1.8h1.3v1.4h-1.3
			v3.7h1.2v1.4H216.8z"/>
		<path class="st11" d="M70.7,1466.2c-2.3,0-3.1-0.6-3.1-1.5c0-0.7,0.5-1.1,1.2-1.2v-0.1c-0.6-0.1-0.9-0.6-0.9-1.1
			c0-0.7,0.6-1,1.2-1.2v0c-0.8-0.4-1.2-1-1.2-1.9c0-1.3,0.9-2.2,2.8-2.2c0.4,0,0.8,0,1.1,0.1v-0.2c0-0.7,0.4-1,1-1h1v1.4h-1.4v0.1
			c0.8,0.4,1.1,1,1.1,1.9c0,1.3-0.9,2.2-2.8,2.2c-0.4,0-0.8,0-1.2-0.1c-0.2,0.1-0.3,0.3-0.3,0.5c0,0.3,0.2,0.5,0.8,0.5H72
			c1.6,0,2.3,0.7,2.3,1.9C74.3,1465.4,73.4,1466.2,70.7,1466.2z M71.5,1463.7h-2.2c-0.2,0.2-0.2,0.4-0.2,0.6c0,0.5,0.4,0.7,1.4,0.7
			h0.7c1,0,1.4-0.2,1.4-0.7C72.6,1463.9,72.3,1463.7,71.5,1463.7z M71.9,1459.1v-0.1c0-0.6-0.4-0.9-1.1-0.9c-0.7,0-1.1,0.3-1.1,0.9
			v0.1c0,0.6,0.4,0.9,1.1,0.9C71.5,1460,71.9,1459.7,71.9,1459.1z"/>
		<path class="st11" d="M74.6,1460.3c0-2.1,1.1-3.4,3.1-3.4c1.9,0,3.1,1.3,3.1,3.4s-1.1,3.4-3.1,3.4
			C75.8,1463.7,74.6,1462.4,74.6,1460.3z M78.8,1461v-1.3c0-0.8-0.4-1.3-1.1-1.3c-0.7,0-1.1,0.5-1.1,1.3v1.3c0,0.8,0.4,1.3,1.1,1.3
			C78.4,1462.3,78.8,1461.8,78.8,1461z"/>
		<path class="st11" d="M84.3,1463.6c-1.3,0-1.9-0.7-1.9-1.9v-3.2h-0.9v-1.4h0.5c0.5,0,0.6-0.2,0.6-0.7v-1.1h1.7v1.8h1.3v1.4h-1.3
			v3.7h1.2v1.4H84.3z"/>
		<path class="st11" d="M89.2,1462.5l1.1-1.1c0.5,0.5,1,0.8,1.7,0.8c0.7,0,1-0.2,1-0.6c0-0.3-0.2-0.5-0.7-0.5l-0.7-0.1
			c-1.5-0.2-2.2-0.8-2.2-2c0-1.3,1-2.1,2.5-2.1c1.4,0,2,0.4,2.7,1l-1.1,1.1c-0.4-0.4-1-0.7-1.5-0.7c-0.6,0-0.9,0.2-0.9,0.5
			c0,0.3,0.1,0.5,0.7,0.6l0.7,0.1c1.4,0.2,2.2,0.8,2.2,2c0,1.3-1.1,2.2-2.8,2.2C90.7,1463.7,89.9,1463.3,89.2,1462.5z"/>
		<path class="st11" d="M95.9,1455.4v-0.3c0-0.5,0.3-0.9,1.1-0.9s1.1,0.4,1.1,0.9v0.3c0,0.5-0.3,0.9-1.1,0.9
			S95.9,1455.9,95.9,1455.4z M96,1457h1.8v6.6H96V1457z"/>
		<path class="st11" d="M99.6,1463.6v-6.6h1.8v1.1h0.1c0.2-0.7,0.8-1.3,1.8-1.3c0.9,0,1.5,0.5,1.8,1.3h0c0.2-0.7,1-1.3,2-1.3
			c1.3,0,2,0.9,2,2.6v4.1h-1.8v-4c0-0.8-0.3-1.2-0.9-1.2c-0.5,0-1.1,0.3-1.1,1v4.2h-1.8v-4c0-0.8-0.3-1.2-0.9-1.2
			c-0.5,0-1.1,0.3-1.1,1v4.2H99.6z"/>
		<path class="st11" d="M110.8,1457h1.8v1.1h0.1c0.2-0.7,0.9-1.2,1.8-1.2c1.7,0,2.5,1.2,2.5,3.4s-0.9,3.4-2.5,3.4
			c-0.8,0-1.6-0.5-1.8-1.2h-0.1v3.6h-1.8V1457z M115,1460.9v-1.1c0-0.8-0.5-1.4-1.2-1.4c-0.7,0-1.2,0.4-1.2,1v1.9c0,0.6,0.5,1,1.2,1
			C114.5,1462.2,115,1461.7,115,1460.9z"/>
		<path class="st11" d="M120.2,1463.6c-1.3,0-1.8-0.6-1.8-1.8v-7.4h1.8v7.8h0.8v1.4H120.2z"/>
		<path class="st11" d="M121.7,1460.3c0-2.1,1.1-3.4,3.1-3.4c2.2,0,3,1.6,3,3.3v0.5h-4.2v0.1c0,0.9,0.5,1.4,1.4,1.4
			c0.8,0,1.2-0.4,1.6-0.8l0.9,1.1c-0.6,0.7-1.5,1.1-2.7,1.1C122.9,1463.7,121.7,1462.4,121.7,1460.3z M123.6,1459.6L123.6,1459.6
			l2.3,0.1v-0.1c0-0.8-0.4-1.3-1.1-1.3S123.6,1458.8,123.6,1459.6z"/>
		<path class="st11" d="M129.1,1463.6v-6.6h1.8v1.4h0.1c0.2-0.7,0.6-1.4,1.7-1.4h0.3v1.7h-0.5c-1.1,0-1.6,0.2-1.6,1v3.8H129.1z"/>
		<path class="st11" d="M142,1463.6c-0.7,0-1.1-0.4-1.2-1.1h-0.1c-0.2,0.8-0.9,1.3-1.9,1.3c-1.3,0-2-0.8-2-1.9c0-1.4,1.1-2,2.8-2h1
			v-0.4c0-0.6-0.3-1-1.1-1c-0.7,0-1.1,0.4-1.4,0.8l-1.1-1c0.5-0.8,1.3-1.2,2.6-1.2c1.8,0,2.8,0.8,2.8,2.4v2.9h0.6v1.4H142z
			 M140.5,1461.6v-0.8h-0.9c-0.7,0-1.1,0.3-1.1,0.7v0.2c0,0.5,0.3,0.7,0.9,0.7C140,1462.4,140.5,1462.2,140.5,1461.6z"/>
		<path class="st11" d="M144.2,1463.6v-6.6h1.8v1.1h0.1c0.2-0.7,0.8-1.3,1.8-1.3c1.3,0,2,0.9,2,2.6v4.1h-1.8v-4
			c0-0.8-0.2-1.2-0.9-1.2c-0.6,0-1.2,0.3-1.2,1v4.2H144.2z"/>
		<path class="st11" d="M155.7,1462.5L155.7,1462.5c-0.2,0.7-1,1.2-1.8,1.2c-1.7,0-2.5-1.2-2.5-3.4s0.9-3.4,2.5-3.4
			c0.8,0,1.6,0.5,1.8,1.2h0.1v-3.8h1.8v9.2h-1.8V1462.5z M155.7,1461.3v-1.9c0-0.6-0.5-1-1.2-1c-0.7,0-1.2,0.5-1.2,1.4v1.1
			c0,0.8,0.5,1.4,1.2,1.4C155.2,1462.2,155.7,1461.9,155.7,1461.3z"/>
		<path class="st11" d="M162.2,1454.3h1.8v3.8h0.1c0.2-0.7,0.9-1.2,1.8-1.2c1.7,0,2.5,1.2,2.5,3.4s-0.9,3.4-2.5,3.4
			c-0.8,0-1.6-0.5-1.8-1.2h-0.1v1.1h-1.8V1454.3z M166.5,1460.9v-1.1c0-0.8-0.5-1.4-1.2-1.4c-0.7,0-1.2,0.4-1.2,1v1.9
			c0,0.6,0.5,1,1.2,1C166,1462.2,166.5,1461.7,166.5,1460.9z"/>
		<path class="st11" d="M169.4,1460.3c0-2.1,1.1-3.4,3.1-3.4c2.2,0,3,1.6,3,3.3v0.5h-4.2v0.1c0,0.9,0.5,1.4,1.4,1.4
			c0.8,0,1.2-0.4,1.6-0.8l0.9,1.1c-0.6,0.7-1.5,1.1-2.7,1.1C170.5,1463.7,169.4,1462.4,169.4,1460.3z M171.3,1459.6L171.3,1459.6
			l2.3,0.1v-0.1c0-0.8-0.4-1.3-1.1-1.3S171.3,1458.8,171.3,1459.6z"/>
		<path class="st11" d="M179.1,1463.6c-1.3,0-1.9-0.7-1.9-1.9v-3.2h-0.9v-1.4h0.5c0.5,0,0.6-0.2,0.6-0.7v-1.1h1.7v1.8h1.3v1.4H179
			v3.7h1.2v1.4H179.1z"/>
		<path class="st11" d="M183.8,1463.6c-1.3,0-1.9-0.7-1.9-1.9v-3.2H181v-1.4h0.5c0.5,0,0.6-0.2,0.6-0.7v-1.1h1.7v1.8h1.3v1.4h-1.3
			v3.7h1.2v1.4H183.8z"/>
		<path class="st11" d="M185.9,1460.3c0-2.1,1.1-3.4,3.1-3.4c2.2,0,3,1.6,3,3.3v0.5h-4.2v0.1c0,0.9,0.5,1.4,1.4,1.4
			c0.8,0,1.2-0.4,1.6-0.8l0.9,1.1c-0.6,0.7-1.5,1.1-2.7,1.1C187,1463.7,185.9,1462.4,185.9,1460.3z M187.8,1459.6L187.8,1459.6
			l2.3,0.1v-0.1c0-0.8-0.4-1.3-1.1-1.3S187.8,1458.8,187.8,1459.6z"/>
		<path class="st11" d="M193.3,1463.6v-6.6h1.8v1.4h0.1c0.2-0.7,0.6-1.4,1.7-1.4h0.3v1.7h-0.5c-1.1,0-1.6,0.2-1.6,1v3.8H193.3z"/>
	</g>
	<path class="st1" d="M230,44.6l76.9,0.2c2.8,0,5.1-2.3,5.1-5.1V5.1c0-2.8-2.3-5.1-5.1-5.1H230v4.8l0,3.6c0,0.5-0.2,1-0.5,1.4
		l-5.2,6.4c-0.3,0.4-0.8,0.9-0.8,1.4V27c0,0.5,0.2,1,0.5,1.4l5.5,6.5c0.3,0.4,0.5,0.9,0.5,1.4L230,44.6z"/>
	<g>
		<path class="st2" d="M237.9,19.1v-6.5h4.5v1.3h-3v1.3h2.6v1.3h-2.6v1.4h3v1.3H237.9z"/>
		<path class="st2" d="M243,19.1l1.6-2.5l-1.6-2.4h1.6l0.9,1.5h0l0.9-1.5h1.5l-1.6,2.5l1.6,2.5h-1.6l-0.9-1.6h0l-0.9,1.6H243z"/>
		<path class="st2" d="M248.7,14.2h1.4V15h0c0.1-0.3,0.2-0.5,0.5-0.7c0.2-0.2,0.5-0.3,0.8-0.3c0.6,0,1.1,0.2,1.4,0.7
			c0.3,0.4,0.5,1.1,0.5,1.9c0,0.8-0.2,1.5-0.5,1.9c-0.3,0.4-0.8,0.7-1.4,0.7c-0.2,0-0.3,0-0.5-0.1c-0.1,0-0.3-0.1-0.4-0.2
			s-0.2-0.2-0.3-0.3c-0.1-0.1-0.1-0.2-0.2-0.4h0V21h-1.4V14.2z M251,18.1c0.3,0,0.5-0.1,0.7-0.3c0.2-0.2,0.3-0.4,0.3-0.7v-0.9
			c0-0.3-0.1-0.6-0.3-0.7s-0.4-0.3-0.7-0.3c-0.3,0-0.5,0.1-0.7,0.2c-0.2,0.1-0.3,0.3-0.3,0.5v1.5c0,0.2,0.1,0.4,0.3,0.5
			C250.5,18,250.8,18.1,251,18.1z"/>
		<path class="st2" d="M256.5,19.2c-0.4,0-0.7-0.1-1-0.2c-0.3-0.1-0.5-0.3-0.7-0.5s-0.4-0.5-0.5-0.8s-0.2-0.7-0.2-1.1
			c0-0.4,0-0.7,0.1-1.1c0.1-0.3,0.2-0.6,0.4-0.8c0.2-0.2,0.4-0.4,0.7-0.5c0.3-0.1,0.6-0.2,1-0.2c0.4,0,0.8,0.1,1,0.2
			c0.3,0.1,0.5,0.3,0.7,0.6c0.2,0.2,0.3,0.5,0.4,0.8s0.1,0.6,0.1,1V17h-3.2v0.1c0,0.3,0.1,0.6,0.3,0.8c0.2,0.2,0.4,0.3,0.8,0.3
			c0.3,0,0.5-0.1,0.7-0.2s0.3-0.3,0.5-0.4l0.7,0.9c-0.2,0.3-0.5,0.5-0.9,0.6C257.3,19.1,256.9,19.2,256.5,19.2z M256.4,15.1
			c-0.3,0-0.5,0.1-0.7,0.3c-0.2,0.2-0.2,0.4-0.2,0.7v0.1h1.7v-0.1c0-0.3-0.1-0.5-0.2-0.7C256.9,15.2,256.7,15.1,256.4,15.1z"/>
		<path class="st2" d="M259.7,19.1v-4.9h1.4v1.1h0c0-0.1,0.1-0.3,0.1-0.4c0.1-0.1,0.1-0.2,0.2-0.3c0.1-0.1,0.2-0.2,0.4-0.2
			c0.1-0.1,0.3-0.1,0.5-0.1h0.2v1.3h-0.3c-0.4,0-0.7,0.1-0.9,0.2s-0.3,0.3-0.3,0.6v2.9H259.7z"/>
		<path class="st2" d="M264.2,13.7c-0.3,0-0.5-0.1-0.6-0.2c-0.1-0.1-0.2-0.3-0.2-0.5v-0.2c0-0.2,0.1-0.4,0.2-0.5
			c0.1-0.1,0.3-0.2,0.6-0.2s0.5,0.1,0.6,0.2c0.1,0.1,0.2,0.3,0.2,0.5V13c0,0.2-0.1,0.4-0.2,0.5C264.7,13.6,264.5,13.7,264.2,13.7z
			 M263.5,14.2h1.4v4.9h-1.4V14.2z"/>
		<path class="st2" d="M266.2,19.1v-4.9h1.4V15h0.1c0.1-0.3,0.2-0.5,0.4-0.7c0.2-0.2,0.5-0.3,0.9-0.3c0.3,0,0.6,0.1,0.9,0.3
			c0.2,0.2,0.4,0.4,0.5,0.7h0c0-0.1,0.1-0.3,0.2-0.4c0.1-0.1,0.2-0.2,0.3-0.3c0.1-0.1,0.3-0.2,0.4-0.2s0.3-0.1,0.5-0.1
			c0.5,0,0.8,0.2,1.1,0.5c0.3,0.3,0.4,0.8,0.4,1.4v3.1h-1.4v-3c0-0.6-0.2-0.9-0.7-0.9c-0.2,0-0.4,0.1-0.6,0.2
			c-0.2,0.1-0.3,0.3-0.3,0.5v3.2H269v-3c0-0.6-0.2-0.9-0.7-0.9c-0.1,0-0.2,0-0.3,0c-0.1,0-0.2,0.1-0.3,0.1s-0.1,0.1-0.2,0.2
			c0,0.1-0.1,0.2-0.1,0.3v3.2H266.2z"/>
		<path class="st2" d="M276.6,19.2c-0.4,0-0.7-0.1-1-0.2c-0.3-0.1-0.5-0.3-0.7-0.5c-0.2-0.2-0.4-0.5-0.5-0.8s-0.2-0.7-0.2-1.1
			c0-0.4,0.1-0.7,0.2-1.1c0.1-0.3,0.2-0.6,0.4-0.8s0.4-0.4,0.7-0.5c0.3-0.1,0.6-0.2,1-0.2c0.4,0,0.8,0.1,1,0.2
			c0.3,0.1,0.5,0.3,0.7,0.6c0.2,0.2,0.3,0.5,0.4,0.8c0.1,0.3,0.1,0.6,0.1,1V17h-3.2v0.1c0,0.3,0.1,0.6,0.3,0.8s0.4,0.3,0.8,0.3
			c0.3,0,0.5-0.1,0.7-0.2c0.2-0.1,0.3-0.3,0.5-0.4l0.7,0.9c-0.2,0.3-0.5,0.5-0.9,0.6C277.5,19.1,277,19.2,276.6,19.2z M276.6,15.1
			c-0.3,0-0.5,0.1-0.7,0.3c-0.2,0.2-0.2,0.4-0.2,0.7v0.1h1.7v-0.1c0-0.3-0.1-0.5-0.2-0.7C277.1,15.2,276.9,15.1,276.6,15.1z"/>
		<path class="st2" d="M279.8,19.1v-4.9h1.4V15h0.1c0.1-0.3,0.2-0.5,0.5-0.7s0.5-0.3,0.9-0.3c0.5,0,0.9,0.2,1.1,0.5s0.4,0.8,0.4,1.4
			v3.1h-1.4v-3c0-0.3-0.1-0.6-0.2-0.7s-0.3-0.2-0.5-0.2c-0.1,0-0.2,0-0.3,0c-0.1,0-0.2,0.1-0.3,0.1c-0.1,0.1-0.2,0.1-0.2,0.2
			c0,0.1-0.1,0.2-0.1,0.3v3.2H279.8z"/>
		<path class="st2" d="M287.1,19.1c-0.5,0-0.8-0.1-1.1-0.4c-0.2-0.2-0.4-0.6-0.4-1.1v-2.4H285v-1.1h0.3c0.2,0,0.3,0,0.4-0.1
			s0.1-0.2,0.1-0.4v-0.8h1.2v1.3h1v1.1h-1V18h0.9v1.1H287.1z"/>
		<path class="st2" d="M291,19.2c-0.4,0-0.7-0.1-1-0.2c-0.3-0.1-0.5-0.3-0.7-0.5s-0.4-0.5-0.5-0.8s-0.2-0.7-0.2-1.1
			c0-0.4,0-0.7,0.1-1.1c0.1-0.3,0.2-0.6,0.4-0.8c0.2-0.2,0.4-0.4,0.7-0.5c0.3-0.1,0.6-0.2,1-0.2c0.4,0,0.8,0.1,1,0.2
			c0.3,0.1,0.5,0.3,0.7,0.6c0.2,0.2,0.3,0.5,0.4,0.8s0.1,0.6,0.1,1V17h-3.2v0.1c0,0.3,0.1,0.6,0.3,0.8c0.2,0.2,0.4,0.3,0.8,0.3
			c0.3,0,0.5-0.1,0.7-0.2s0.3-0.3,0.5-0.4l0.7,0.9c-0.2,0.3-0.5,0.5-0.9,0.6C291.9,19.1,291.5,19.2,291,19.2z M291,15.1
			c-0.3,0-0.5,0.1-0.7,0.3c-0.2,0.2-0.2,0.4-0.2,0.7v0.1h1.7v-0.1c0-0.3-0.1-0.5-0.2-0.7C291.5,15.2,291.3,15.1,291,15.1z"/>
		<path class="st2" d="M239.8,30.5c-0.4,0-0.7-0.1-1-0.2c-0.3-0.1-0.5-0.3-0.7-0.5c-0.2-0.2-0.3-0.5-0.5-0.8
			c-0.1-0.3-0.2-0.7-0.2-1.1c0-0.4,0.1-0.8,0.2-1.1c0.1-0.3,0.3-0.6,0.5-0.8c0.2-0.2,0.4-0.4,0.7-0.5c0.3-0.1,0.6-0.2,1-0.2
			s0.7,0.1,1,0.2s0.5,0.3,0.7,0.5c0.2,0.2,0.3,0.5,0.5,0.8c0.1,0.3,0.2,0.7,0.2,1.1c0,0.4-0.1,0.8-0.2,1.1c-0.1,0.3-0.3,0.6-0.5,0.8
			c-0.2,0.2-0.4,0.4-0.7,0.5S240.1,30.5,239.8,30.5z M239.8,29.4c0.3,0,0.5-0.1,0.6-0.3c0.1-0.2,0.2-0.4,0.2-0.7v-1
			c0-0.3-0.1-0.6-0.2-0.7c-0.2-0.2-0.4-0.3-0.6-0.3s-0.5,0.1-0.6,0.3c-0.2,0.2-0.2,0.4-0.2,0.7v1c0,0.3,0.1,0.6,0.2,0.7
			C239.3,29.3,239.5,29.4,239.8,29.4z"/>
		<path class="st2" d="M245.4,23.8h2.5c0.4,0,0.8,0.1,1.2,0.2c0.4,0.1,0.7,0.3,0.9,0.6c0.2,0.3,0.4,0.6,0.6,1
			c0.1,0.4,0.2,0.9,0.2,1.4s-0.1,1-0.2,1.4c-0.1,0.4-0.3,0.8-0.6,1s-0.6,0.5-0.9,0.6c-0.4,0.1-0.8,0.2-1.2,0.2h-2.5V23.8z
			 M247.8,29.1c0.4,0,0.8-0.1,1-0.4s0.4-0.6,0.4-1.1v-1c0-0.5-0.1-0.9-0.4-1.1c-0.2-0.2-0.6-0.4-1-0.4h-1v4H247.8z"/>
		<path class="st2" d="M251.8,23.4h1.4v2.8h0c0.1-0.3,0.2-0.5,0.5-0.7c0.2-0.2,0.5-0.3,0.8-0.3c0.6,0,1.1,0.2,1.4,0.7
			c0.3,0.4,0.5,1.1,0.5,1.9c0,0.8-0.2,1.5-0.5,1.9c-0.3,0.4-0.8,0.7-1.4,0.7c-0.2,0-0.3,0-0.5-0.1c-0.1,0-0.3-0.1-0.4-0.2
			s-0.2-0.2-0.3-0.3c-0.1-0.1-0.1-0.2-0.2-0.4h0v0.8h-1.4V23.4z M254.1,29.3c0.3,0,0.5-0.1,0.7-0.3c0.2-0.2,0.3-0.4,0.3-0.7v-0.9
			c0-0.3-0.1-0.6-0.3-0.7s-0.4-0.3-0.7-0.3c-0.3,0-0.5,0.1-0.7,0.2c-0.2,0.1-0.3,0.3-0.3,0.5v1.5c0,0.2,0.1,0.4,0.3,0.5
			C253.6,29.3,253.9,29.3,254.1,29.3z"/>
		<path class="st2" d="M259.5,30.5c-0.4,0-0.7-0.1-1-0.2c-0.3-0.1-0.5-0.3-0.7-0.5c-0.2-0.2-0.3-0.5-0.5-0.8
			c-0.1-0.3-0.2-0.7-0.2-1.1c0-0.4,0.1-0.8,0.2-1.1c0.1-0.3,0.3-0.6,0.5-0.8c0.2-0.2,0.4-0.4,0.7-0.5c0.3-0.1,0.6-0.2,1-0.2
			c0.4,0,0.7,0.1,1,0.2c0.3,0.1,0.5,0.3,0.7,0.5c0.2,0.2,0.3,0.5,0.5,0.8s0.2,0.7,0.2,1.1c0,0.4-0.1,0.8-0.2,1.1s-0.3,0.6-0.5,0.8
			c-0.2,0.2-0.4,0.4-0.7,0.5C260.2,30.4,259.9,30.5,259.5,30.5z M259.5,29.4c0.3,0,0.5-0.1,0.6-0.3c0.2-0.2,0.2-0.4,0.2-0.7v-1
			c0-0.3-0.1-0.6-0.2-0.7s-0.4-0.3-0.6-0.3c-0.3,0-0.5,0.1-0.6,0.3s-0.2,0.4-0.2,0.7v1c0,0.3,0.1,0.6,0.2,0.7
			C259,29.3,259.2,29.4,259.5,29.4z"/>
		<path class="st2" d="M264.5,30.4c-0.5,0-0.8-0.1-1.1-0.4c-0.2-0.2-0.4-0.6-0.4-1.1v-2.4h-0.7v-1.1h0.3c0.2,0,0.3,0,0.4-0.1
			s0.1-0.2,0.1-0.4v-0.8h1.2v1.3h1v1.1h-1v2.8h0.9v1.1H264.5z"/>
		<path class="st2" d="M268.6,30.4v-4.9h1.4v0.8h0.1c0.1-0.3,0.2-0.5,0.5-0.7s0.5-0.3,0.9-0.3c0.5,0,0.9,0.2,1.1,0.5
			c0.3,0.3,0.4,0.8,0.4,1.4v3.1h-1.4v-3c0-0.3-0.1-0.6-0.2-0.7s-0.3-0.2-0.5-0.2c-0.1,0-0.2,0-0.3,0c-0.1,0-0.2,0.1-0.3,0.1
			s-0.2,0.1-0.2,0.2c-0.1,0.1-0.1,0.2-0.1,0.3v3.2H268.6z"/>
		<path class="st2" d="M277.8,30.4c-0.2,0-0.5-0.1-0.6-0.2s-0.3-0.4-0.3-0.6h-0.1c-0.1,0.3-0.2,0.6-0.5,0.7
			c-0.3,0.2-0.6,0.2-0.9,0.2c-0.5,0-0.9-0.1-1.1-0.4c-0.3-0.3-0.4-0.6-0.4-1c0-0.5,0.2-0.9,0.6-1.2s0.9-0.4,1.5-0.4h0.8v-0.3
			c0-0.2-0.1-0.4-0.2-0.6s-0.3-0.2-0.6-0.2c-0.3,0-0.5,0.1-0.7,0.2c-0.2,0.1-0.3,0.3-0.4,0.4l-0.8-0.7c0.2-0.3,0.5-0.5,0.8-0.7
			s0.7-0.2,1.2-0.2c0.7,0,1.2,0.2,1.6,0.5s0.5,0.8,0.5,1.3v2.2h0.5v1.1H277.8z M275.9,29.5c0.2,0,0.4,0,0.6-0.1s0.2-0.3,0.2-0.5
			v-0.6h-0.7c-0.5,0-0.8,0.2-0.8,0.5V29c0,0.2,0.1,0.3,0.2,0.4C275.5,29.5,275.7,29.5,275.9,29.5z"/>
		<path class="st2" d="M281.8,23.8h2.5c0.4,0,0.8,0.1,1.2,0.2c0.4,0.1,0.7,0.3,0.9,0.6c0.2,0.3,0.4,0.6,0.6,1
			c0.1,0.4,0.2,0.9,0.2,1.4s-0.1,1-0.2,1.4c-0.1,0.4-0.3,0.8-0.6,1s-0.6,0.5-0.9,0.6c-0.4,0.1-0.8,0.2-1.2,0.2h-2.5V23.8z
			 M284.3,29.1c0.4,0,0.8-0.1,1-0.4s0.4-0.6,0.4-1.1v-1c0-0.5-0.1-0.9-0.4-1.1c-0.2-0.2-0.6-0.4-1-0.4h-1v4H284.3z"/>
		<path class="st2" d="M290.3,30.5c-0.4,0-0.7-0.1-1-0.2c-0.3-0.1-0.5-0.3-0.7-0.5s-0.4-0.5-0.5-0.8s-0.2-0.7-0.2-1.1
			c0-0.4,0-0.7,0.1-1.1c0.1-0.3,0.2-0.6,0.4-0.8c0.2-0.2,0.4-0.4,0.7-0.5c0.3-0.1,0.6-0.2,1-0.2c0.4,0,0.8,0.1,1,0.2
			c0.3,0.1,0.5,0.3,0.7,0.6c0.2,0.2,0.3,0.5,0.4,0.8s0.1,0.6,0.1,1v0.4h-3.2v0.1c0,0.3,0.1,0.6,0.3,0.8c0.2,0.2,0.4,0.3,0.8,0.3
			c0.3,0,0.5-0.1,0.7-0.2s0.3-0.3,0.5-0.4l0.7,0.9c-0.2,0.3-0.5,0.5-0.9,0.6C291.2,30.4,290.8,30.5,290.3,30.5z M290.3,26.3
			c-0.3,0-0.5,0.1-0.7,0.3c-0.2,0.2-0.2,0.4-0.2,0.7v0.1h1.7v-0.1c0-0.3-0.1-0.5-0.2-0.7C290.8,26.4,290.6,26.3,290.3,26.3z"/>
		<path class="st2" d="M293.6,30.4v-4.9h1.4v1.1h0c0-0.1,0.1-0.3,0.1-0.4c0.1-0.1,0.1-0.2,0.2-0.3c0.1-0.1,0.2-0.2,0.4-0.2
			c0.1-0.1,0.3-0.1,0.5-0.1h0.2v1.3h-0.3c-0.4,0-0.7,0.1-0.9,0.2s-0.3,0.3-0.3,0.6v2.9H293.6z"/>
		<path class="st2" d="M298,24.9c-0.3,0-0.5-0.1-0.6-0.2c-0.1-0.1-0.2-0.3-0.2-0.5V24c0-0.2,0.1-0.4,0.2-0.5
			c0.1-0.1,0.3-0.2,0.6-0.2s0.5,0.1,0.6,0.2c0.1,0.1,0.2,0.3,0.2,0.5v0.2c0,0.2-0.1,0.4-0.2,0.5C298.5,24.8,298.3,24.9,298,24.9z
			 M297.3,25.4h1.4v4.9h-1.4V25.4z"/>
		<path class="st2" d="M301.1,30.4l-1.6-4.9h1.4l0.6,2l0.5,1.8h0.1l0.5-1.8l0.6-2h1.3l-1.6,4.9H301.1z"/>
	</g>
</g>
</svg>
