<svg xmlns="http://www.w3.org/2000/svg" width="28" height="28"><g fill="none" fill-rule="evenodd"><path fill="#F16447" fill-rule="nonzero" d="M5.7.6h16.4C24.8.6 27 2.8 27 5.5v16.4c0 2.7-2.2 4.9-4.9 4.9H5.7C3 26.8.8 24.6.8 21.9V5.5C.7 2.8 2.9.6 5.7.6z"/><path d="M12 11.5c.4 0 .7-.3.7-.7 0-.4-.3-.7-.7-.7-.4 0-.7.3-.7.7 0 .2.1.4.2.5.1.1.3.2.5.2z"/><path fill="#FFF" fill-rule="nonzero" d="M21.5 13.2V9.4c0-2.2-1.8-4-4-4h-3.2v7.7h7.2v.1zm-7.2 8.7h3.2c2.2 0 4-1.8 4-4v-3.8h-7.2v7.8zM10.4 12c-1.2 0-2.2-.9-2.3-2.2-.1-1.2.8-2.3 2-2.4 1.2-.2 2.3.7 2.6 1.9h.7V5.5h-3.2c-2.2 0-4 1.8-4 4V18c0 2.2 1.8 4 4 4h3.2V10.1h-.7c-.2 1.1-1.2 1.9-2.3 1.9z"/><path d="M.7.6h26.2v26.2H.7z"/></g></svg>