<svg xmlns="http://www.w3.org/2000/svg" width="480" height="45"><path d="M473.41 44.4H37.146c-.5 0-.999.2-1.398.5l-6.49 5.6c-.4.3-.9.5-1.399.5h-9.486c-.5 0-.998-.2-1.398-.5l-6.49-5.6c-.4-.3-.899-.5-1.398-.5H4.493C1.997 44.4 0 42.4 0 39.9V4.5C0 2 1.997 0 4.493 0h4.694c.499 0 .998.2 1.398.5l6.49 5.6c.4.3.899.5 1.398.5h9.486c.5 0 .999-.2 1.398-.5l6.49-5.6c.3-.3.8-.5 1.299-.5H480v8.2c0 .5-.2 1-.5 1.4l-5.591 6.5c-.3.4-.5.9-.5 1.4V27c0 .5.2 1 .5 1.4l5.592 6.5c.3.4.499.9.499 1.4v8l-6.59.1z" fill="#FFF" fill-rule="nonzero"/></svg>