<?xml version="1.0" encoding="utf-8"?>
<!-- Generator: Adobe Illustrator 24.3.0, SVG Export Plug-In . SVG Version: 6.00 Build 0)  -->
<svg version="1.1" xmlns="http://www.w3.org/2000/svg" xmlns:xlink="http://www.w3.org/1999/xlink" x="0px" y="0px"
	 viewBox="0 0 312 51.2" style="enable-background:new 0 0 312 51.2;" xml:space="preserve">
<style type="text/css">
	.st0{fill:#17212C;}
	.st1{fill:#FF444F;}
	.st2{fill:#FF6444;}
	.st3{fill:none;}
	.st4{fill:#FFFFFF;}
	.st5{fill:#CC2E3D;}
	.st6{fill:#BCCDCE;}
	.st7{fill:#C7E5E5;}
	.st8{fill:#85ACB0;}
	.st9{fill:#E1F4F3;}
	.st10{fill:#E5E5E5;}
	.st11{fill:#0E0E0E;}
	.st12{font-family:'IBMPlexSans-Bold';}
	.st13{font-size:12.4841px;}
	.st14{font-size:9.3766px;}
</style>
<g id="Layer_1">
</g>
<g id="Layer_2">
</g>
<g id="Layer_3">
	<g>
		<path class="st4" d="M219.7,44.5l-182.2,0c-0.5,0-1,0.2-1.4,0.5l-6.5,5.6c-0.4,0.3-0.9,0.5-1.4,0.5h-9.5c-0.5,0-1-0.2-1.4-0.5
			l-6.5-5.6c-0.4-0.3-0.9-0.5-1.4-0.5l-4.7,0c-2.5,0-4.5-2-4.5-4.5V4.5C0,2,2,0,4.5,0l4.7,0c0.5,0,1,0.2,1.4,0.5l6.5,5.6
			c0.4,0.3,0.9,0.5,1.4,0.5h9.5c0.5,0,1-0.2,1.4-0.5l6.5-5.6C36.5,0.2,37,0,37.6,0l184,0l4.8,0l0,8.2c0,0.5-0.2,1-0.5,1.4l-5.6,6.5
			c-0.3,0.4-0.5,0.9-0.5,1.4v9.5c0,0.5,0.2,1,0.5,1.4l5.6,6.5c0.3,0.4,0.5,0.9,0.5,1.4l0,8L219.7,44.5z"/>
	</g>
	<g id="logo_x2F_platforms_x2F_DBot_4_" transform="translate(16.000000, 8.000000)">
		<g id="_x33_-icons_x2F_2-binarybot_4_">
			<g id="ic_platform-binarybot_4_">
				<path id="Rectangle_8_" class="st2" d="M1.6,4.2H18c2.7,0,4.9,2.2,4.9,4.9v16.4c0,2.7-2.2,4.9-4.9,4.9H1.6
					c-2.7,0-4.9-2.2-4.9-4.9V9.1C-3.3,6.4-1.1,4.2,1.6,4.2z"/>
				<path id="Path_16_" class="st3" d="M7.9,15.1c0.4,0,0.7-0.3,0.7-0.7s-0.3-0.7-0.7-0.7c-0.4,0-0.7,0.3-0.7,0.7
					c0,0.2,0.1,0.4,0.2,0.5C7.6,15,7.7,15.1,7.9,15.1L7.9,15.1z"/>
				<path id="Path_15_" class="st4" d="M17.4,16.8v-3.8c0-2.2-1.8-4-4-4h-3.2v7.7H17.4z"/>
				<path id="Path_14_" class="st4" d="M10.3,25.5h3.2c2.2,0,4-1.8,4-4v-3.8h-7.1V25.5z"/>
				<path id="Path_13_" class="st4" d="M6.3,15.6c-1.2,0-2.2-0.9-2.3-2.2C4,12.2,4.8,11.1,6,11c1.2-0.2,2.3,0.7,2.6,1.9h0.7V9.1H6.2
					c-2.2,0-4,1.8-4,4v8.5c0,2.2,1.8,4,4,4h3.2V13.7H8.6C8.4,14.8,7.5,15.6,6.3,15.6z"/>
				<rect id="Rectangle_7_" x="-3.3" y="4.2" class="st3" width="26.2" height="26.2"/>
			</g>
		</g>
	</g>
	<rect x="50.4" y="10.5" class="st3" width="155.9" height="28.5"/>
	<text transform="matrix(1 0 0 1 50.3917 19.6947)"><tspan x="0" y="0" class="st11 st12 st13">Building a trading bot just </tspan><tspan x="0" y="15" class="st11 st12 st13">got simpler and better</tspan></text>
	<path class="st1" d="M230,44.6l76.9,0.2c2.8,0,5.1-2.3,5.1-5.1V5.1c0-2.8-2.3-5.1-5.1-5.1H230v4.8l0,3.6c0,0.5-0.2,1-0.5,1.4
		l-5.2,6.4c-0.3,0.4-0.8,0.9-0.8,1.4V27c0,0.5,0.2,1,0.5,1.4l5.5,6.5c0.3,0.4,0.5,0.9,0.5,1.4L230,44.6z"/>
	<text transform="matrix(1 0 0 1 229.186 25.0701)" class="st4 st12 st14">Try DBot on Deriv</text>
</g>
</svg>
